<?xml version="1.0" encoding="UTF-8" standalone="no"?><!DOCTYPE svg PUBLIC "-//W3C//DTD SVG 1.1//EN" "http://www.w3.org/Graphics/SVG/1.1/DTD/svg11.dtd"><!-- Generated by graphviz version 2.40.1 (20161225.0304)
 --><!-- Title: %0 Pages: 1 --><svg xmlns="http://www.w3.org/2000/svg" xmlns:xlink="http://www.w3.org/1999/xlink" width="670pt" height="412pt" viewBox="36.00 36.00 634.00 376.17">
<g id="graph0" class="graph" transform="scale(.45 .45) rotate(0) translate(84.0067 832.0067)">
<title>%0</title>
<polygon fill="#ffffff" stroke="transparent" points="-4,4 -4,-752 1325,-752 1325,4 -4,4"/>
<g id="clust1" class="cluster">
<title>cluster_ThisWorkbook</title>
<g id="a_clust1"><a xlink:href="C:\Users\broch\Desktop\to delete/MS Excel Data Entry Form v26/ThisWorkbook.gv.svg" xlink:title="ThisWorkbook">
<polygon fill="none" stroke="#000000" points="727.7381,.3591 727.7381,-195.6409 1084.7381,-195.6409 1084.7381,.3591 727.7381,.3591"/>
<text text-anchor="middle" x="906.2381" y="-179.0409" font-family="Times,serif" font-size="14.00" fill="#000000">ThisWorkbook</text>
</a>
</g>
</g>
<g id="clust2" class="cluster">
<title>cluster_Sheet3</title>
<g id="a_clust2"><a xlink:href="C:\Users\broch\Desktop\to delete/MS Excel Data Entry Form v26/Sheet3.gv.svg" xlink:title="Sheet3">
<polygon fill="none" stroke="#000000" points="-.3615,-112.2608 -.3615,-683.2608 621.6385,-683.2608 621.6385,-112.2608 -.3615,-112.2608"/>
<text text-anchor="middle" x="310.6385" y="-666.6608" font-family="Times,serif" font-size="14.00" fill="#000000">Sheet3</text>
</a>
</g>
</g>
<g id="clust3" class="cluster">
<title>cluster_Module1</title>
<g id="a_clust3"><a xlink:href="C:\Users\broch\Desktop\to delete/MS Excel Data Entry Form v26/Module1.gv.svg" xlink:title="Module1">
<polygon fill="none" stroke="#000000" points="634.0922,-274.601 634.0922,-515.601 1100.0922,-515.601 1100.0922,-274.601 634.0922,-274.601"/>
<text text-anchor="middle" x="867.0922" y="-499.001" font-family="Times,serif" font-size="14.00" fill="#000000">Module1</text>
</a>
</g>
</g>
<g id="clust4" class="cluster">
<title>cluster_Module2</title>
<g id="a_clust4"><a xlink:href="C:\Users\broch\Desktop\to delete/MS Excel Data Entry Form v26/Module2.gv.svg" xlink:title="Module2">
<polygon fill="none" stroke="#000000" points="783.7381,-615.6409 783.7381,-747.6409 1320.7381,-747.6409 1320.7381,-615.6409 783.7381,-615.6409"/>
<text text-anchor="middle" x="1052.2381" y="-731.0409" font-family="Times,serif" font-size="14.00" fill="#000000">Module2</text>
</a>
</g>
</g>
<!-- WorkbookBeforeSave -->
<g id="node1" class="node">
<title>WorkbookBeforeSave</title>
<ellipse fill="none" stroke="#000000" cx="832.9762" cy="-85.2818" rx="97.2586" ry="18"/>
<text text-anchor="middle" x="832.9762" y="-81.0818" font-family="Times,serif" font-size="14.00" fill="#000000">WorkbookBeforeSave</text>
</g>
<!-- WorkbookBeforeSave&#45;&gt;WorkbookBeforeSave -->
<g id="edge1" class="edge">
<title>WorkbookBeforeSave-&gt;WorkbookBeforeSave</title>
<path fill="none" stroke="#000000" d="M924.848,-91.4369C938.8485,-90.4975 948.3555,-88.4458 948.3555,-85.2818 948.3555,-82.9582 943.2283,-81.2345 934.9596,-80.1107"/>
<polygon fill="#000000" stroke="#000000" points="935.1401,-76.6118 924.848,-79.1267 934.462,-83.5789 935.1401,-76.6118"/>
</g>
<!-- WorkbookOpen -->
<g id="node2" class="node">
<title>WorkbookOpen</title>
<ellipse fill="none" stroke="#000000" cx="908.9762" cy="-25.2818" rx="73.0055" ry="18"/>
<text text-anchor="middle" x="908.9762" y="-21.0818" font-family="Times,serif" font-size="14.00" fill="#000000">WorkbookOpen</text>
</g>
<!-- WorkbookBeforeClose -->
<g id="node3" class="node">
<title>WorkbookBeforeClose</title>
<ellipse fill="none" stroke="#000000" cx="975.9762" cy="-145.2818" rx="100.7075" ry="18"/>
<text text-anchor="middle" x="975.9762" y="-141.0818" font-family="Times,serif" font-size="14.00" fill="#000000">WorkbookBeforeClose</text>
</g>
<!-- WorkbookBeforeClose&#45;&gt;WorkbookBeforeClose -->
<g id="edge2" class="edge">
<title>WorkbookBeforeClose-&gt;WorkbookBeforeClose</title>
<path fill="none" stroke="#000000" d="M1070.8936,-151.4051C1085.0233,-150.4518 1094.5799,-148.4107 1094.5799,-145.2818 1094.5799,-142.984 1089.426,-141.2728 1081.0918,-140.1484"/>
<polygon fill="#000000" stroke="#000000" points="1081.185,-136.641 1070.8936,-139.1584 1080.5086,-143.6083 1081.185,-136.641"/>
</g>
<!-- WorksheetSelectionChange -->
<g id="node4" class="node">
<title>WorksheetSelectionChange</title>
<ellipse fill="none" stroke="#000000" cx="359.8767" cy="-254.9017" rx="118.1004" ry="18"/>
<text text-anchor="middle" x="359.8767" y="-250.7017" font-family="Times,serif" font-size="14.00" fill="#000000">WorksheetSelectionChange</text>
</g>
<!-- WorksheetSelectionChange&#45;&gt;WorksheetSelectionChange -->
<g id="edge3" class="edge">
<title>WorksheetSelectionChange-&gt;WorksheetSelectionChange</title>
<path fill="none" stroke="#000000" d="M471.6421,-260.8541C486.3935,-259.839 496.1767,-257.8549 496.1767,-254.9017 496.1767,-252.6869 490.6736,-251.0171 481.6989,-249.8924"/>
<polygon fill="#000000" stroke="#000000" points="481.9253,-246.3983 471.6421,-248.9493 481.2717,-253.3678 481.9253,-246.3983"/>
</g>
<!-- EditMode -->
<g id="node16" class="node">
<title>EditMode</title>
<ellipse fill="none" stroke="#000000" cx="56.8767" cy="-533.9017" rx="49.8194" ry="18"/>
<text text-anchor="middle" x="56.8767" y="-529.7017" font-family="Times,serif" font-size="14.00" fill="#000000">EditMode</text>
</g>
<!-- WorksheetSelectionChange&#45;&gt;EditMode -->
<g id="edge4" class="edge">
<title>WorksheetSelectionChange-&gt;EditMode</title>
<path fill="none" stroke="#000000" d="M321.3224,-272.0181C289.6132,-285.916 243.3989,-305.7613 202.4723,-321.7555 151.9118,-341.5146 122.5271,-321.4431 87.4664,-362.8862 69.5977,-384.0077 61.63,-462.6798 58.5491,-505.5727"/>
<polygon fill="#000000" stroke="#000000" points="55.0504,-505.4368 57.8681,-515.6501 62.0345,-505.9088 55.0504,-505.4368"/>
</g>
<!-- WorksheetSelectionChange&#45;&gt;EditMode -->
<g id="edge5" class="edge">
<title>WorksheetSelectionChange-&gt;EditMode</title>
<path fill="none" stroke="#000000" d="M321.3224,-272.0181C289.6132,-285.916 243.3989,-305.7613 202.4723,-321.7555 151.9118,-341.5146 122.5271,-321.4431 87.4664,-362.8862 69.5977,-384.0077 61.63,-462.6798 58.5491,-505.5727"/>
<polygon fill="#000000" stroke="#000000" points="55.0504,-505.4368 57.8681,-515.6501 62.0345,-505.9088 55.0504,-505.4368"/>
</g>
<!-- ResetRangeColors -->
<g id="node20" class="node">
<title>ResetRangeColors</title>
<ellipse fill="none" stroke="#000000" cx="144.8767" cy="-254.9017" rx="82.8225" ry="18"/>
<text text-anchor="middle" x="144.8767" y="-250.7017" font-family="Times,serif" font-size="14.00" fill="#000000">ResetRangeColors</text>
</g>
<!-- WorksheetSelectionChange&#45;&gt;ResetRangeColors -->
<g id="edge6" class="edge">
<title>WorksheetSelectionChange-&gt;ResetRangeColors</title>
<path fill="none" stroke="#000000" d="M241.3709,-254.9017C240.3913,-254.9017 239.413,-254.9017 238.4362,-254.9017"/>
<polygon fill="#000000" stroke="#000000" points="238.0458,-251.4018 228.0457,-254.9017 238.0457,-258.4018 238.0458,-251.4018"/>
</g>
<!-- WorksheetSelectionChange&#45;&gt;ResetRangeColors -->
<g id="edge7" class="edge">
<title>WorksheetSelectionChange-&gt;ResetRangeColors</title>
<path fill="none" stroke="#000000" d="M241.3709,-254.9017C240.3913,-254.9017 239.413,-254.9017 238.4362,-254.9017"/>
<polygon fill="#000000" stroke="#000000" points="238.0458,-251.4018 228.0457,-254.9017 238.0457,-258.4018 238.0458,-251.4018"/>
</g>
<!-- WorksheetSelectionChange&#45;&gt;ResetRangeColors -->
<g id="edge8" class="edge">
<title>WorksheetSelectionChange-&gt;ResetRangeColors</title>
<path fill="none" stroke="#000000" d="M241.3709,-254.9017C240.3913,-254.9017 239.413,-254.9017 238.4362,-254.9017"/>
<polygon fill="#000000" stroke="#000000" points="238.0458,-251.4018 228.0457,-254.9017 238.0457,-258.4018 238.0458,-251.4018"/>
</g>
<!-- WorksheetSelectionChange&#45;&gt;ResetRangeColors -->
<g id="edge9" class="edge">
<title>WorksheetSelectionChange-&gt;ResetRangeColors</title>
<path fill="none" stroke="#000000" d="M241.3709,-254.9017C240.3913,-254.9017 239.413,-254.9017 238.4362,-254.9017"/>
<polygon fill="#000000" stroke="#000000" points="238.0458,-251.4018 228.0457,-254.9017 238.0457,-258.4018 238.0458,-251.4018"/>
</g>
<!-- WorksheetSelectionChange&#45;&gt;ResetRangeColors -->
<g id="edge10" class="edge">
<title>WorksheetSelectionChange-&gt;ResetRangeColors</title>
<path fill="none" stroke="#000000" d="M241.3709,-254.9017C240.3913,-254.9017 239.413,-254.9017 238.4362,-254.9017"/>
<polygon fill="#000000" stroke="#000000" points="238.0458,-251.4018 228.0457,-254.9017 238.0457,-258.4018 238.0458,-251.4018"/>
</g>
<!-- WorksheetSelectionChange&#45;&gt;ResetRangeColors -->
<g id="edge11" class="edge">
<title>WorksheetSelectionChange-&gt;ResetRangeColors</title>
<path fill="none" stroke="#000000" d="M241.3709,-254.9017C240.3913,-254.9017 239.413,-254.9017 238.4362,-254.9017"/>
<polygon fill="#000000" stroke="#000000" points="238.0458,-251.4018 228.0457,-254.9017 238.0457,-258.4018 238.0458,-251.4018"/>
</g>
<!-- WorksheetSelectionChange&#45;&gt;ResetRangeColors -->
<g id="edge12" class="edge">
<title>WorksheetSelectionChange-&gt;ResetRangeColors</title>
<path fill="none" stroke="#000000" d="M241.3709,-254.9017C240.3913,-254.9017 239.413,-254.9017 238.4362,-254.9017"/>
<polygon fill="#000000" stroke="#000000" points="238.0458,-251.4018 228.0457,-254.9017 238.0457,-258.4018 238.0458,-251.4018"/>
</g>
<!-- WorksheetSelectionChange&#45;&gt;ResetRangeColors -->
<g id="edge13" class="edge">
<title>WorksheetSelectionChange-&gt;ResetRangeColors</title>
<path fill="none" stroke="#000000" d="M241.3709,-254.9017C240.3913,-254.9017 239.413,-254.9017 238.4362,-254.9017"/>
<polygon fill="#000000" stroke="#000000" points="238.0458,-251.4018 228.0457,-254.9017 238.0457,-258.4018 238.0458,-251.4018"/>
</g>
<!-- AssignRowColor -->
<g id="node21" class="node">
<title>AssignRowColor</title>
<ellipse fill="none" stroke="#000000" cx="517.8767" cy="-578.9017" rx="78.1907" ry="18"/>
<text text-anchor="middle" x="517.8767" y="-574.7017" font-family="Times,serif" font-size="14.00" fill="#000000">AssignRowColor</text>
</g>
<!-- WorksheetSelectionChange&#45;&gt;AssignRowColor -->
<g id="edge14" class="edge">
<title>WorksheetSelectionChange-&gt;AssignRowColor</title>
<path fill="none" stroke="#000000" d="M438.8516,-268.3973C491.7695,-282.167 556.9796,-309.492 586.5797,-363.0057 621.506,-426.1488 607.7823,-460.5216 575.3339,-524.973 569.5665,-536.4288 560.3176,-546.7266 550.9106,-555.1781"/>
<polygon fill="#000000" stroke="#000000" points="548.4217,-552.6991 543.0446,-561.828 552.941,-558.0448 548.4217,-552.6991"/>
</g>
<!-- AssignColumnColor -->
<g id="node22" class="node">
<title>AssignColumnColor</title>
<ellipse fill="none" stroke="#000000" cx="494.8767" cy="-362.9017" rx="90.9534" ry="18"/>
<text text-anchor="middle" x="494.8767" y="-358.7017" font-family="Times,serif" font-size="14.00" fill="#000000">AssignColumnColor</text>
</g>
<!-- WorksheetSelectionChange&#45;&gt;AssignColumnColor -->
<g id="edge15" class="edge">
<title>WorksheetSelectionChange-&gt;AssignColumnColor</title>
<path fill="none" stroke="#000000" d="M432.6649,-269.1821C454.8772,-277.1924 477.1012,-289.6614 491.0842,-309.0481 496.3649,-316.3695 498.2089,-325.8045 498.4548,-334.7265"/>
<polygon fill="#000000" stroke="#000000" points="494.954,-334.6962 498.1195,-344.8071 501.9501,-334.929 494.954,-334.6962"/>
</g>
<!-- WorksheetChange -->
<g id="node5" class="node">
<title>WorksheetChange</title>
<ellipse fill="none" stroke="#000000" cx="143.8767" cy="-308.9017" rx="82.2276" ry="18"/>
<text text-anchor="middle" x="143.8767" y="-304.7017" font-family="Times,serif" font-size="14.00" fill="#000000">WorksheetChange</text>
</g>
<!-- WorksheetChange&#45;&gt;WorksheetChange -->
<g id="edge16" class="edge">
<title>WorksheetChange-&gt;WorksheetChange</title>
<path fill="none" stroke="#000000" d="M221.3057,-315.2299C234.8312,-314.3861 244.2403,-312.2767 244.2403,-308.9017 244.2403,-306.4496 239.2733,-304.6655 231.3693,-303.5496"/>
<polygon fill="#000000" stroke="#000000" points="231.5968,-300.0554 221.3057,-302.5736 230.9211,-307.0227 231.5968,-300.0554"/>
</g>
<!-- ApplyColorsToNewColumns -->
<g id="node23" class="node">
<title>ApplyColorsToNewColumns</title>
<ellipse fill="none" stroke="#000000" cx="402.8767" cy="-416.9017" rx="124.5254" ry="18"/>
<text text-anchor="middle" x="402.8767" y="-412.7017" font-family="Times,serif" font-size="14.00" fill="#000000">ApplyColorsToNewColumns</text>
</g>
<!-- WorksheetChange&#45;&gt;ApplyColorsToNewColumns -->
<g id="edge17" class="edge">
<title>WorksheetChange-&gt;ApplyColorsToNewColumns</title>
<path fill="none" stroke="#000000" d="M218.6775,-316.4758C281.7434,-324.4316 365.3433,-339.1882 388.6376,-363.2095 395.2715,-370.0505 398.9056,-379.6097 400.8673,-388.7697"/>
<polygon fill="#000000" stroke="#000000" points="397.4299,-389.4416 402.4424,-398.7757 404.3448,-388.353 397.4299,-389.4416"/>
</g>
<!-- addEmploye -->
<g id="node6" class="node">
<title>addEmploye</title>
<ellipse fill="none" stroke="#000000" cx="553.8767" cy="-245.9017" rx="59.6955" ry="18"/>
<text text-anchor="middle" x="553.8767" y="-241.7017" font-family="Times,serif" font-size="14.00" fill="#000000">addEmploye</text>
</g>
<!-- AlterEmployeLines -->
<g id="node8" class="node">
<title>AlterEmployeLines</title>
<ellipse fill="none" stroke="#000000" cx="328.8767" cy="-200.9017" rx="87.3963" ry="18"/>
<text text-anchor="middle" x="328.8767" y="-196.7017" font-family="Times,serif" font-size="14.00" fill="#000000">AlterEmployeLines</text>
</g>
<!-- addEmploye&#45;&gt;AlterEmployeLines -->
<g id="edge18" class="edge">
<title>addEmploye-&gt;AlterEmployeLines</title>
<path fill="none" stroke="#000000" d="M503.9419,-235.9148C473.9056,-229.9075 435.145,-222.1554 401.7335,-215.4731"/>
<polygon fill="#000000" stroke="#000000" points="402.0439,-211.9659 391.5517,-213.4367 400.6711,-218.83 402.0439,-211.9659"/>
</g>
<!-- RemEmploye -->
<g id="node7" class="node">
<title>RemEmploye</title>
<ellipse fill="none" stroke="#000000" cx="305.8767" cy="-146.9017" rx="64.2862" ry="18"/>
<text text-anchor="middle" x="305.8767" y="-142.7017" font-family="Times,serif" font-size="14.00" fill="#000000">RemEmploye</text>
</g>
<!-- RemEmploye&#45;&gt;AlterEmployeLines -->
<g id="edge19" class="edge">
<title>RemEmploye-&gt;AlterEmployeLines</title>
<path fill="none" stroke="#000000" d="M313.5353,-164.8829C314.7253,-167.6768 315.9773,-170.6163 317.2316,-173.5611"/>
<polygon fill="#000000" stroke="#000000" points="314.0342,-174.9862 321.173,-182.8149 320.4744,-172.2431 314.0342,-174.9862"/>
</g>
<!-- AlterEmployeLines&#45;&gt;AlterEmployeLines -->
<g id="edge20" class="edge">
<title>AlterEmployeLines-&gt;AlterEmployeLines</title>
<path fill="none" stroke="#000000" d="M410.9156,-207.1755C424.6189,-206.2977 434.0746,-204.2064 434.0746,-200.9017 434.0746,-198.5007 429.083,-196.7402 421.0974,-195.6202"/>
<polygon fill="#000000" stroke="#000000" points="421.208,-192.1145 410.9156,-194.628 420.5289,-199.0815 421.208,-192.1145"/>
</g>
<!-- AlterEmployeLines&#45;&gt;EditMode -->
<g id="edge21" class="edge">
<title>AlterEmployeLines-&gt;EditMode</title>
<path fill="none" stroke="#000000" d="M288.7582,-217.1006C271.6087,-225.909 252.7802,-238.4199 240.6302,-254.9014 225.927,-274.8462 242.2506,-289.4857 226.8991,-308.9358 185.7317,-361.094 130.3829,-312.1574 87.4664,-362.8862 69.5977,-384.0077 61.63,-462.6798 58.5491,-505.5727"/>
<polygon fill="#000000" stroke="#000000" points="55.0504,-505.4368 57.8681,-515.6501 62.0345,-505.9088 55.0504,-505.4368"/>
</g>
<!-- AlterEmployeLines&#45;&gt;EditMode -->
<g id="edge33" class="edge">
<title>AlterEmployeLines-&gt;EditMode</title>
<path fill="none" stroke="#000000" d="M288.7582,-217.1006C271.6087,-225.909 252.7802,-238.4199 240.6302,-254.9014 225.927,-274.8462 242.2506,-289.4857 226.8991,-308.9358 185.7317,-361.094 130.3829,-312.1574 87.4664,-362.8862 69.5977,-384.0077 61.63,-462.6798 58.5491,-505.5727"/>
<polygon fill="#000000" stroke="#000000" points="55.0504,-505.4368 57.8681,-515.6501 62.0345,-505.9088 55.0504,-505.4368"/>
</g>
<!-- AlterEmployeLines&#45;&gt;EditMode -->
<g id="edge34" class="edge">
<title>AlterEmployeLines-&gt;EditMode</title>
<path fill="none" stroke="#000000" d="M288.7582,-217.1006C271.6087,-225.909 252.7802,-238.4199 240.6302,-254.9014 225.927,-274.8462 242.2506,-289.4857 226.8991,-308.9358 185.7317,-361.094 130.3829,-312.1574 87.4664,-362.8862 69.5977,-384.0077 61.63,-462.6798 58.5491,-505.5727"/>
<polygon fill="#000000" stroke="#000000" points="55.0504,-505.4368 57.8681,-515.6501 62.0345,-505.9088 55.0504,-505.4368"/>
</g>
<!-- AlterEmployeLines&#45;&gt;EditMode -->
<g id="edge35" class="edge">
<title>AlterEmployeLines-&gt;EditMode</title>
<path fill="none" stroke="#000000" d="M288.7582,-217.1006C271.6087,-225.909 252.7802,-238.4199 240.6302,-254.9014 225.927,-274.8462 242.2506,-289.4857 226.8991,-308.9358 185.7317,-361.094 130.3829,-312.1574 87.4664,-362.8862 69.5977,-384.0077 61.63,-462.6798 58.5491,-505.5727"/>
<polygon fill="#000000" stroke="#000000" points="55.0504,-505.4368 57.8681,-515.6501 62.0345,-505.9088 55.0504,-505.4368"/>
</g>
<!-- AlterEmployeLines&#45;&gt;EditMode -->
<g id="edge36" class="edge">
<title>AlterEmployeLines-&gt;EditMode</title>
<path fill="none" stroke="#000000" d="M288.7582,-217.1006C271.6087,-225.909 252.7802,-238.4199 240.6302,-254.9014 225.927,-274.8462 242.2506,-289.4857 226.8991,-308.9358 185.7317,-361.094 130.3829,-312.1574 87.4664,-362.8862 69.5977,-384.0077 61.63,-462.6798 58.5491,-505.5727"/>
<polygon fill="#000000" stroke="#000000" points="55.0504,-505.4368 57.8681,-515.6501 62.0345,-505.9088 55.0504,-505.4368"/>
</g>
<!-- EnlargeNamedRange -->
<g id="node18" class="node">
<title>EnlargeNamedRange</title>
<ellipse fill="none" stroke="#000000" cx="271.8767" cy="-551.9017" rx="93.7417" ry="18"/>
<text text-anchor="middle" x="271.8767" y="-547.7017" font-family="Times,serif" font-size="14.00" fill="#000000">EnlargeNamedRange</text>
</g>
<!-- AlterEmployeLines&#45;&gt;EnlargeNamedRange -->
<g id="edge23" class="edge">
<title>AlterEmployeLines-&gt;EnlargeNamedRange</title>
<path fill="none" stroke="#000000" d="M285.3901,-216.5066C268.2555,-225.0435 250.3712,-237.506 240.6302,-254.9014 228.9358,-275.7852 226.9684,-289.1294 240.6692,-308.7554 280.7813,-366.2151 385.3153,-293.2127 388.6376,-363.2095 391.244,-418.1234 294.4705,-364.566 277.1215,-416.7325 264.2743,-455.3626 324.4293,-457.5168 319.516,-497.9296 318.1532,-509.1384 311.8192,-519.1577 304.1924,-527.4311"/>
<polygon fill="#000000" stroke="#000000" points="301.6399,-525.0318 296.9303,-534.5224 306.5304,-530.0401 301.6399,-525.0318"/>
</g>
<!-- AlterEmployeLines&#45;&gt;EnlargeNamedRange -->
<g id="edge24" class="edge">
<title>AlterEmployeLines-&gt;EnlargeNamedRange</title>
<path fill="none" stroke="#000000" d="M285.3901,-216.5066C268.2555,-225.0435 250.3712,-237.506 240.6302,-254.9014 228.9358,-275.7852 226.9684,-289.1294 240.6692,-308.7554 280.7813,-366.2151 385.3153,-293.2127 388.6376,-363.2095 391.244,-418.1234 294.4705,-364.566 277.1215,-416.7325 264.2743,-455.3626 324.4293,-457.5168 319.516,-497.9296 318.1532,-509.1384 311.8192,-519.1577 304.1924,-527.4311"/>
<polygon fill="#000000" stroke="#000000" points="301.6399,-525.0318 296.9303,-534.5224 306.5304,-530.0401 301.6399,-525.0318"/>
</g>
<!-- AlterEmployeLines&#45;&gt;EnlargeNamedRange -->
<g id="edge25" class="edge">
<title>AlterEmployeLines-&gt;EnlargeNamedRange</title>
<path fill="none" stroke="#000000" d="M285.3901,-216.5066C268.2555,-225.0435 250.3712,-237.506 240.6302,-254.9014 228.9358,-275.7852 226.9684,-289.1294 240.6692,-308.7554 280.7813,-366.2151 385.3153,-293.2127 388.6376,-363.2095 391.244,-418.1234 294.4705,-364.566 277.1215,-416.7325 264.2743,-455.3626 324.4293,-457.5168 319.516,-497.9296 318.1532,-509.1384 311.8192,-519.1577 304.1924,-527.4311"/>
<polygon fill="#000000" stroke="#000000" points="301.6399,-525.0318 296.9303,-534.5224 306.5304,-530.0401 301.6399,-525.0318"/>
</g>
<!-- AlterEmployeLines&#45;&gt;EnlargeNamedRange -->
<g id="edge27" class="edge">
<title>AlterEmployeLines-&gt;EnlargeNamedRange</title>
<path fill="none" stroke="#000000" d="M285.3901,-216.5066C268.2555,-225.0435 250.3712,-237.506 240.6302,-254.9014 228.9358,-275.7852 226.9684,-289.1294 240.6692,-308.7554 280.7813,-366.2151 385.3153,-293.2127 388.6376,-363.2095 391.244,-418.1234 294.4705,-364.566 277.1215,-416.7325 264.2743,-455.3626 324.4293,-457.5168 319.516,-497.9296 318.1532,-509.1384 311.8192,-519.1577 304.1924,-527.4311"/>
<polygon fill="#000000" stroke="#000000" points="301.6399,-525.0318 296.9303,-534.5224 306.5304,-530.0401 301.6399,-525.0318"/>
</g>
<!-- AlterEmployeLines&#45;&gt;EnlargeNamedRange -->
<g id="edge28" class="edge">
<title>AlterEmployeLines-&gt;EnlargeNamedRange</title>
<path fill="none" stroke="#000000" d="M285.3901,-216.5066C268.2555,-225.0435 250.3712,-237.506 240.6302,-254.9014 228.9358,-275.7852 226.9684,-289.1294 240.6692,-308.7554 280.7813,-366.2151 385.3153,-293.2127 388.6376,-363.2095 391.244,-418.1234 294.4705,-364.566 277.1215,-416.7325 264.2743,-455.3626 324.4293,-457.5168 319.516,-497.9296 318.1532,-509.1384 311.8192,-519.1577 304.1924,-527.4311"/>
<polygon fill="#000000" stroke="#000000" points="301.6399,-525.0318 296.9303,-534.5224 306.5304,-530.0401 301.6399,-525.0318"/>
</g>
<!-- AlterEmployeLines&#45;&gt;EnlargeNamedRange -->
<g id="edge29" class="edge">
<title>AlterEmployeLines-&gt;EnlargeNamedRange</title>
<path fill="none" stroke="#000000" d="M285.3901,-216.5066C268.2555,-225.0435 250.3712,-237.506 240.6302,-254.9014 228.9358,-275.7852 226.9684,-289.1294 240.6692,-308.7554 280.7813,-366.2151 385.3153,-293.2127 388.6376,-363.2095 391.244,-418.1234 294.4705,-364.566 277.1215,-416.7325 264.2743,-455.3626 324.4293,-457.5168 319.516,-497.9296 318.1532,-509.1384 311.8192,-519.1577 304.1924,-527.4311"/>
<polygon fill="#000000" stroke="#000000" points="301.6399,-525.0318 296.9303,-534.5224 306.5304,-530.0401 301.6399,-525.0318"/>
</g>
<!-- VerifyFirstLastZoneInsertion -->
<g id="node19" class="node">
<title>VerifyFirstLastZoneInsertion</title>
<ellipse fill="none" stroke="#000000" cx="455.8767" cy="-470.9017" rx="124.9713" ry="18"/>
<text text-anchor="middle" x="455.8767" y="-466.7017" font-family="Times,serif" font-size="14.00" fill="#000000">VerifyFirstLastZoneInsertion</text>
</g>
<!-- AlterEmployeLines&#45;&gt;VerifyFirstLastZoneInsertion -->
<g id="edge22" class="edge">
<title>AlterEmployeLines-&gt;VerifyFirstLastZoneInsertion</title>
<path fill="none" stroke="#000000" d="M372.9934,-216.5452C394.491,-224.1952 420.712,-233.5662 444.1981,-242.0722 522.2621,-270.3448 588.1426,-279.9945 586.5797,-363.0057 585.8068,-404.0546 547.0481,-432.4095 511.9411,-449.7136"/>
<polygon fill="#000000" stroke="#000000" points="510.2035,-446.6631 502.6466,-454.089 513.1849,-452.9964 510.2035,-446.6631"/>
</g>
<!-- AlterEmployeLines&#45;&gt;ResetRangeColors -->
<g id="edge26" class="edge">
<title>AlterEmployeLines-&gt;ResetRangeColors</title>
<path fill="none" stroke="#000000" d="M278.5978,-215.6575C255.5921,-222.4092 228.1704,-230.4568 204.1649,-237.5019"/>
<polygon fill="#000000" stroke="#000000" points="203.0673,-234.1764 194.4576,-240.3508 205.0385,-240.8931 203.0673,-234.1764"/>
</g>
<!-- ApplyRangeFormula -->
<g id="node28" class="node">
<title>ApplyRangeFormula</title>
<ellipse fill="none" stroke="#000000" cx="171.8767" cy="-443.9017" rx="92.6402" ry="18"/>
<text text-anchor="middle" x="171.8767" y="-439.7017" font-family="Times,serif" font-size="14.00" fill="#000000">ApplyRangeFormula</text>
</g>
<!-- AlterEmployeLines&#45;&gt;ApplyRangeFormula -->
<g id="edge30" class="edge">
<title>AlterEmployeLines-&gt;ApplyRangeFormula</title>
<path fill="none" stroke="#000000" d="M288.7582,-217.1006C271.6087,-225.909 252.7802,-238.4199 240.6302,-254.9014 225.927,-274.8462 242.2506,-289.4857 226.8991,-308.9358 185.7317,-361.094 101.364,-297.9086 87.4664,-362.8862 82.0657,-388.137 102.8438,-408.2875 125.1327,-422.1765"/>
<polygon fill="#000000" stroke="#000000" points="123.6307,-425.3525 134.0309,-427.3738 127.1612,-419.308 123.6307,-425.3525"/>
</g>
<!-- AlterEmployeLines&#45;&gt;ApplyRangeFormula -->
<g id="edge31" class="edge">
<title>AlterEmployeLines-&gt;ApplyRangeFormula</title>
<path fill="none" stroke="#000000" d="M288.7582,-217.1006C271.6087,-225.909 252.7802,-238.4199 240.6302,-254.9014 225.927,-274.8462 242.2506,-289.4857 226.8991,-308.9358 185.7317,-361.094 101.364,-297.9086 87.4664,-362.8862 82.0657,-388.137 102.8438,-408.2875 125.1327,-422.1765"/>
<polygon fill="#000000" stroke="#000000" points="123.6307,-425.3525 134.0309,-427.3738 127.1612,-419.308 123.6307,-425.3525"/>
</g>
<!-- AlterEmployeLines&#45;&gt;ApplyRangeFormula -->
<g id="edge32" class="edge">
<title>AlterEmployeLines-&gt;ApplyRangeFormula</title>
<path fill="none" stroke="#000000" d="M288.7582,-217.1006C271.6087,-225.909 252.7802,-238.4199 240.6302,-254.9014 225.927,-274.8462 242.2506,-289.4857 226.8991,-308.9358 185.7317,-361.094 101.364,-297.9086 87.4664,-362.8862 82.0657,-388.137 102.8438,-408.2875 125.1327,-422.1765"/>
<polygon fill="#000000" stroke="#000000" points="123.6307,-425.3525 134.0309,-427.3738 127.1612,-419.308 123.6307,-425.3525"/>
</g>
<!-- AddCat -->
<g id="node9" class="node">
<title>AddCat</title>
<ellipse fill="none" stroke="#000000" cx="228.8767" cy="-605.9017" rx="41.1509" ry="18"/>
<text text-anchor="middle" x="228.8767" y="-601.7017" font-family="Times,serif" font-size="14.00" fill="#000000">AddCat</text>
</g>
<!-- AlterCatLine -->
<g id="node11" class="node">
<title>AlterCatLine</title>
<ellipse fill="none" stroke="#000000" cx="447.8767" cy="-137.9017" rx="61.9712" ry="18"/>
<text text-anchor="middle" x="447.8767" y="-133.7017" font-family="Times,serif" font-size="14.00" fill="#000000">AlterCatLine</text>
</g>
<!-- AddCat&#45;&gt;AlterCatLine -->
<g id="edge37" class="edge">
<title>AddCat-&gt;AlterCatLine</title>
<path fill="none" stroke="#000000" d="M266.0638,-598.0805C304.7275,-588.9038 360.4386,-572.32 366.2463,-551.9272 385.9586,-482.7113 257.909,-486.0888 277.1215,-416.7325 284.4597,-390.2422 364.0919,-375.5825 388.6376,-363.2095 434.6283,-340.0265 469.4489,-355.7868 491.0842,-309.0481 501.4369,-286.6829 489.6514,-277.1851 479.1231,-254.9021 463.8922,-222.6659 435.6033,-226.9381 429.5995,-191.794 428.0928,-182.9744 429.9395,-173.6505 432.9555,-165.2827"/>
<polygon fill="#000000" stroke="#000000" points="436.2159,-166.5591 436.9022,-155.9865 429.7725,-163.8235 436.2159,-166.5591"/>
</g>
<!-- RemCat -->
<g id="node10" class="node">
<title>RemCat</title>
<ellipse fill="none" stroke="#000000" cx="535.8767" cy="-632.9017" rx="42.8732" ry="18"/>
<text text-anchor="middle" x="535.8767" y="-628.7017" font-family="Times,serif" font-size="14.00" fill="#000000">RemCat</text>
</g>
<!-- RemCat&#45;&gt;AlterCatLine -->
<g id="edge38" class="edge">
<title>RemCat-&gt;AlterCatLine</title>
<path fill="none" stroke="#000000" d="M561.2931,-618.163C574.6419,-608.8319 589.64,-595.4133 596.5967,-578.9029 633.8951,-490.3824 623.4736,-451.6956 586.5797,-363.0057 576.6667,-339.1759 434.9178,-217.0495 429.5995,-191.794 427.7558,-183.0387 429.5039,-173.7335 432.5332,-165.3632"/>
<polygon fill="#000000" stroke="#000000" points="435.8007,-166.6247 436.5395,-156.0556 429.371,-163.8571 435.8007,-166.6247"/>
</g>
<!-- AlterCatLine&#45;&gt;AlterCatLine -->
<g id="edge39" class="edge">
<title>AlterCatLine-&gt;AlterCatLine</title>
<path fill="none" stroke="#000000" d="M505.756,-144.47C518.5467,-143.8529 527.8622,-141.6634 527.8622,-137.9017 527.8622,-135.2568 523.2568,-133.3891 516.0761,-132.2988"/>
<polygon fill="#000000" stroke="#000000" points="516.0386,-128.7801 505.756,-131.3334 515.3865,-135.7497 516.0386,-128.7801"/>
</g>
<!-- AlterCatLine&#45;&gt;EditMode -->
<g id="edge40" class="edge">
<title>AlterCatLine-&gt;EditMode</title>
<path fill="none" stroke="#000000" d="M442.5641,-155.8461C437.7198,-169.6241 429.375,-188.3644 416.7716,-200.9682 407.6708,-210.0692 402.8927,-209.3713 390.8001,-213.7784 325.7839,-237.4735 286.9736,-203.5121 240.6302,-254.9014 224.0358,-273.3026 242.2506,-289.4857 226.8991,-308.9358 219.303,-318.5599 213.7002,-316.8303 202.4723,-321.7555 152.7606,-343.5622 122.5271,-321.4431 87.4664,-362.8862 69.5977,-384.0077 61.63,-462.6798 58.5491,-505.5727"/>
<polygon fill="#000000" stroke="#000000" points="55.0504,-505.4368 57.8681,-515.6501 62.0345,-505.9088 55.0504,-505.4368"/>
</g>
<!-- AlterCatLine&#45;&gt;EditMode -->
<g id="edge45" class="edge">
<title>AlterCatLine-&gt;EditMode</title>
<path fill="none" stroke="#000000" d="M442.5641,-155.8461C437.7198,-169.6241 429.375,-188.3644 416.7716,-200.9682 407.6708,-210.0692 402.8927,-209.3713 390.8001,-213.7784 325.7839,-237.4735 286.9736,-203.5121 240.6302,-254.9014 224.0358,-273.3026 242.2506,-289.4857 226.8991,-308.9358 219.303,-318.5599 213.7002,-316.8303 202.4723,-321.7555 152.7606,-343.5622 122.5271,-321.4431 87.4664,-362.8862 69.5977,-384.0077 61.63,-462.6798 58.5491,-505.5727"/>
<polygon fill="#000000" stroke="#000000" points="55.0504,-505.4368 57.8681,-515.6501 62.0345,-505.9088 55.0504,-505.4368"/>
</g>
<!-- AlterCatLine&#45;&gt;EditMode -->
<g id="edge46" class="edge">
<title>AlterCatLine-&gt;EditMode</title>
<path fill="none" stroke="#000000" d="M442.5641,-155.8461C437.7198,-169.6241 429.375,-188.3644 416.7716,-200.9682 407.6708,-210.0692 402.8927,-209.3713 390.8001,-213.7784 325.7839,-237.4735 286.9736,-203.5121 240.6302,-254.9014 224.0358,-273.3026 242.2506,-289.4857 226.8991,-308.9358 219.303,-318.5599 213.7002,-316.8303 202.4723,-321.7555 152.7606,-343.5622 122.5271,-321.4431 87.4664,-362.8862 69.5977,-384.0077 61.63,-462.6798 58.5491,-505.5727"/>
<polygon fill="#000000" stroke="#000000" points="55.0504,-505.4368 57.8681,-515.6501 62.0345,-505.9088 55.0504,-505.4368"/>
</g>
<!-- AlterCatLine&#45;&gt;EditMode -->
<g id="edge47" class="edge">
<title>AlterCatLine-&gt;EditMode</title>
<path fill="none" stroke="#000000" d="M442.5641,-155.8461C437.7198,-169.6241 429.375,-188.3644 416.7716,-200.9682 407.6708,-210.0692 402.8927,-209.3713 390.8001,-213.7784 325.7839,-237.4735 286.9736,-203.5121 240.6302,-254.9014 224.0358,-273.3026 242.2506,-289.4857 226.8991,-308.9358 219.303,-318.5599 213.7002,-316.8303 202.4723,-321.7555 152.7606,-343.5622 122.5271,-321.4431 87.4664,-362.8862 69.5977,-384.0077 61.63,-462.6798 58.5491,-505.5727"/>
<polygon fill="#000000" stroke="#000000" points="55.0504,-505.4368 57.8681,-515.6501 62.0345,-505.9088 55.0504,-505.4368"/>
</g>
<!-- AlterCatLine&#45;&gt;EnlargeNamedRange -->
<g id="edge42" class="edge">
<title>AlterCatLine-&gt;EnlargeNamedRange</title>
<path fill="none" stroke="#000000" d="M436.9022,-155.9865C431.8981,-166.2762 427.5033,-179.5233 429.5995,-191.794 435.6033,-226.9381 463.8922,-222.6659 479.1231,-254.9021 489.6514,-277.1851 501.4369,-286.6829 491.0842,-309.0481 469.4489,-355.7868 434.6283,-340.0265 388.6376,-363.2095 339.5462,-387.9555 294.4705,-364.566 277.1215,-416.7325 264.2743,-455.3626 324.4293,-457.5168 319.516,-497.9296 318.1532,-509.1384 311.8192,-519.1577 304.1924,-527.4311"/>
<polygon fill="#000000" stroke="#000000" points="301.6399,-525.0318 296.9303,-534.5224 306.5304,-530.0401 301.6399,-525.0318"/>
</g>
<!-- AlterCatLine&#45;&gt;EnlargeNamedRange -->
<g id="edge43" class="edge">
<title>AlterCatLine-&gt;EnlargeNamedRange</title>
<path fill="none" stroke="#000000" d="M436.9022,-155.9865C431.8981,-166.2762 427.5033,-179.5233 429.5995,-191.794 435.6033,-226.9381 463.8922,-222.6659 479.1231,-254.9021 489.6514,-277.1851 501.4369,-286.6829 491.0842,-309.0481 469.4489,-355.7868 434.6283,-340.0265 388.6376,-363.2095 339.5462,-387.9555 294.4705,-364.566 277.1215,-416.7325 264.2743,-455.3626 324.4293,-457.5168 319.516,-497.9296 318.1532,-509.1384 311.8192,-519.1577 304.1924,-527.4311"/>
<polygon fill="#000000" stroke="#000000" points="301.6399,-525.0318 296.9303,-534.5224 306.5304,-530.0401 301.6399,-525.0318"/>
</g>
<!-- AlterCatLine&#45;&gt;VerifyFirstLastZoneInsertion -->
<g id="edge41" class="edge">
<title>AlterCatLine-&gt;VerifyFirstLastZoneInsertion</title>
<path fill="none" stroke="#000000" d="M436.5395,-156.0556C431.4219,-166.367 427.0344,-179.6127 429.5995,-191.794 440.236,-242.3051 588.5919,-311.4261 586.5797,-363.0057 584.9792,-404.0306 546.295,-432.3878 511.4271,-449.6987"/>
<polygon fill="#000000" stroke="#000000" points="509.7349,-446.6276 502.2002,-454.0761 512.7352,-452.952 509.7349,-446.6276"/>
</g>
<!-- CreateExcelValidateDropDownList -->
<g id="node25" class="node">
<title>CreateExcelValidateDropDownList</title>
<ellipse fill="none" stroke="#000000" cx="238.052" cy="-363.0479" rx="149.2928" ry="18"/>
<text text-anchor="middle" x="238.052" y="-358.8479" font-family="Times,serif" font-size="14.00" fill="#000000">CreateExcelValidateDropDownList</text>
</g>
<!-- AlterCatLine&#45;&gt;CreateExcelValidateDropDownList -->
<g id="edge44" class="edge">
<title>AlterCatLine-&gt;CreateExcelValidateDropDownList</title>
<path fill="none" stroke="#000000" d="M442.5641,-155.8461C437.7198,-169.6241 429.375,-188.3644 416.7716,-200.9682 358.8796,-258.8616 288.2881,-188.3293 240.6302,-254.9014 224.1345,-277.9439 226.1888,-311.3945 230.6565,-334.9785"/>
<polygon fill="#000000" stroke="#000000" points="227.2974,-336.0064 232.8211,-345.0473 234.1411,-334.535 227.2974,-336.0064"/>
</g>
<!-- AddQuestion -->
<g id="node12" class="node">
<title>AddQuestion</title>
<ellipse fill="none" stroke="#000000" cx="69.8767" cy="-146.9017" rx="62.5624" ry="18"/>
<text text-anchor="middle" x="69.8767" y="-142.7017" font-family="Times,serif" font-size="14.00" fill="#000000">AddQuestion</text>
</g>
<!-- AlterQuestionColumn -->
<g id="node14" class="node">
<title>AlterQuestionColumn</title>
<ellipse fill="none" stroke="#000000" cx="221.8767" cy="-497.9017" rx="96.7293" ry="18"/>
<text text-anchor="middle" x="221.8767" y="-493.7017" font-family="Times,serif" font-size="14.00" fill="#000000">AlterQuestionColumn</text>
</g>
<!-- AddQuestion&#45;&gt;AlterQuestionColumn -->
<g id="edge48" class="edge">
<title>AddQuestion-&gt;AlterQuestionColumn</title>
<path fill="none" stroke="#000000" d="M65.9222,-165.2592C63.8906,-175.6343 61.6357,-188.8763 60.6333,-200.7957 56.6078,-248.6588 57.6709,-260.9412 60.8542,-308.8677 60.9794,-310.7528 77.4624,-442.2078 78.5698,-443.7386 92.4834,-462.9716 114.1137,-475.3774 136.3891,-483.3786"/>
<polygon fill="#000000" stroke="#000000" points="135.3612,-486.7251 145.9545,-486.5451 137.5611,-480.0797 135.3612,-486.7251"/>
</g>
<!-- RemQuestion -->
<g id="node13" class="node">
<title>RemQuestion</title>
<ellipse fill="none" stroke="#000000" cx="98.8767" cy="-587.9017" rx="64.2843" ry="18"/>
<text text-anchor="middle" x="98.8767" y="-583.7017" font-family="Times,serif" font-size="14.00" fill="#000000">RemQuestion</text>
</g>
<!-- RemQuestion&#45;&gt;AlterQuestionColumn -->
<g id="edge49" class="edge">
<title>RemQuestion-&gt;AlterQuestionColumn</title>
<path fill="none" stroke="#000000" d="M122.012,-570.9734C141.1797,-556.9483 168.6257,-536.8658 189.8959,-521.3023"/>
<polygon fill="#000000" stroke="#000000" points="192.0025,-524.0978 198.006,-515.368 187.8689,-518.4486 192.0025,-524.0978"/>
</g>
<!-- AlterQuestionColumn&#45;&gt;AlterQuestionColumn -->
<g id="edge50" class="edge">
<title>AlterQuestionColumn-&gt;AlterQuestionColumn</title>
<path fill="none" stroke="#000000" d="M312.8724,-504.0877C327.0651,-503.1629 336.7412,-501.1009 336.7412,-497.9017 336.7412,-495.5273 331.4112,-493.7793 322.8605,-492.6578"/>
<polygon fill="#000000" stroke="#000000" points="323.1569,-489.1703 312.8724,-491.7157 322.4995,-496.1393 323.1569,-489.1703"/>
</g>
<!-- AlterQuestionColumn&#45;&gt;EditMode -->
<g id="edge51" class="edge">
<title>AlterQuestionColumn-&gt;EditMode</title>
<path fill="none" stroke="#000000" d="M159.0265,-511.6145C142.7403,-515.1678 125.3693,-518.9579 109.658,-522.3858"/>
<polygon fill="#000000" stroke="#000000" points="108.6253,-519.0287 99.6013,-524.58 110.1176,-525.8678 108.6253,-519.0287"/>
</g>
<!-- AlterQuestionColumn&#45;&gt;EditMode -->
<g id="edge65" class="edge">
<title>AlterQuestionColumn-&gt;EditMode</title>
<path fill="none" stroke="#000000" d="M159.0265,-511.6145C142.7403,-515.1678 125.3693,-518.9579 109.658,-522.3858"/>
<polygon fill="#000000" stroke="#000000" points="108.6253,-519.0287 99.6013,-524.58 110.1176,-525.8678 108.6253,-519.0287"/>
</g>
<!-- AlterQuestionColumn&#45;&gt;EditMode -->
<g id="edge66" class="edge">
<title>AlterQuestionColumn-&gt;EditMode</title>
<path fill="none" stroke="#000000" d="M159.0265,-511.6145C142.7403,-515.1678 125.3693,-518.9579 109.658,-522.3858"/>
<polygon fill="#000000" stroke="#000000" points="108.6253,-519.0287 99.6013,-524.58 110.1176,-525.8678 108.6253,-519.0287"/>
</g>
<!-- AlterQuestionColumn&#45;&gt;EditMode -->
<g id="edge67" class="edge">
<title>AlterQuestionColumn-&gt;EditMode</title>
<path fill="none" stroke="#000000" d="M159.0265,-511.6145C142.7403,-515.1678 125.3693,-518.9579 109.658,-522.3858"/>
<polygon fill="#000000" stroke="#000000" points="108.6253,-519.0287 99.6013,-524.58 110.1176,-525.8678 108.6253,-519.0287"/>
</g>
<!-- AlterQuestionColumn&#45;&gt;EnlargeNamedRange -->
<g id="edge53" class="edge">
<title>AlterQuestionColumn-&gt;EnlargeNamedRange</title>
<path fill="none" stroke="#000000" d="M238.5259,-515.8829C241.6136,-519.2176 244.8932,-522.7596 248.1441,-526.2706"/>
<polygon fill="#000000" stroke="#000000" points="245.7673,-528.8552 255.1296,-533.8149 250.9037,-524.0993 245.7673,-528.8552"/>
</g>
<!-- AlterQuestionColumn&#45;&gt;EnlargeNamedRange -->
<g id="edge54" class="edge">
<title>AlterQuestionColumn-&gt;EnlargeNamedRange</title>
<path fill="none" stroke="#000000" d="M238.5259,-515.8829C241.6136,-519.2176 244.8932,-522.7596 248.1441,-526.2706"/>
<polygon fill="#000000" stroke="#000000" points="245.7673,-528.8552 255.1296,-533.8149 250.9037,-524.0993 245.7673,-528.8552"/>
</g>
<!-- AlterQuestionColumn&#45;&gt;EnlargeNamedRange -->
<g id="edge55" class="edge">
<title>AlterQuestionColumn-&gt;EnlargeNamedRange</title>
<path fill="none" stroke="#000000" d="M238.5259,-515.8829C241.6136,-519.2176 244.8932,-522.7596 248.1441,-526.2706"/>
<polygon fill="#000000" stroke="#000000" points="245.7673,-528.8552 255.1296,-533.8149 250.9037,-524.0993 245.7673,-528.8552"/>
</g>
<!-- AlterQuestionColumn&#45;&gt;EnlargeNamedRange -->
<g id="edge56" class="edge">
<title>AlterQuestionColumn-&gt;EnlargeNamedRange</title>
<path fill="none" stroke="#000000" d="M238.5259,-515.8829C241.6136,-519.2176 244.8932,-522.7596 248.1441,-526.2706"/>
<polygon fill="#000000" stroke="#000000" points="245.7673,-528.8552 255.1296,-533.8149 250.9037,-524.0993 245.7673,-528.8552"/>
</g>
<!-- AlterQuestionColumn&#45;&gt;EnlargeNamedRange -->
<g id="edge57" class="edge">
<title>AlterQuestionColumn-&gt;EnlargeNamedRange</title>
<path fill="none" stroke="#000000" d="M238.5259,-515.8829C241.6136,-519.2176 244.8932,-522.7596 248.1441,-526.2706"/>
<polygon fill="#000000" stroke="#000000" points="245.7673,-528.8552 255.1296,-533.8149 250.9037,-524.0993 245.7673,-528.8552"/>
</g>
<!-- AlterQuestionColumn&#45;&gt;EnlargeNamedRange -->
<g id="edge58" class="edge">
<title>AlterQuestionColumn-&gt;EnlargeNamedRange</title>
<path fill="none" stroke="#000000" d="M238.5259,-515.8829C241.6136,-519.2176 244.8932,-522.7596 248.1441,-526.2706"/>
<polygon fill="#000000" stroke="#000000" points="245.7673,-528.8552 255.1296,-533.8149 250.9037,-524.0993 245.7673,-528.8552"/>
</g>
<!-- AlterQuestionColumn&#45;&gt;EnlargeNamedRange -->
<g id="edge59" class="edge">
<title>AlterQuestionColumn-&gt;EnlargeNamedRange</title>
<path fill="none" stroke="#000000" d="M238.5259,-515.8829C241.6136,-519.2176 244.8932,-522.7596 248.1441,-526.2706"/>
<polygon fill="#000000" stroke="#000000" points="245.7673,-528.8552 255.1296,-533.8149 250.9037,-524.0993 245.7673,-528.8552"/>
</g>
<!-- AlterQuestionColumn&#45;&gt;EnlargeNamedRange -->
<g id="edge60" class="edge">
<title>AlterQuestionColumn-&gt;EnlargeNamedRange</title>
<path fill="none" stroke="#000000" d="M238.5259,-515.8829C241.6136,-519.2176 244.8932,-522.7596 248.1441,-526.2706"/>
<polygon fill="#000000" stroke="#000000" points="245.7673,-528.8552 255.1296,-533.8149 250.9037,-524.0993 245.7673,-528.8552"/>
</g>
<!-- AlterQuestionColumn&#45;&gt;EnlargeNamedRange -->
<g id="edge61" class="edge">
<title>AlterQuestionColumn-&gt;EnlargeNamedRange</title>
<path fill="none" stroke="#000000" d="M238.5259,-515.8829C241.6136,-519.2176 244.8932,-522.7596 248.1441,-526.2706"/>
<polygon fill="#000000" stroke="#000000" points="245.7673,-528.8552 255.1296,-533.8149 250.9037,-524.0993 245.7673,-528.8552"/>
</g>
<!-- AlterQuestionColumn&#45;&gt;VerifyFirstLastZoneInsertion -->
<g id="edge52" class="edge">
<title>AlterQuestionColumn-&gt;VerifyFirstLastZoneInsertion</title>
<path fill="none" stroke="#000000" d="M304.3763,-488.3825C318.4885,-486.7542 333.3361,-485.041 347.9918,-483.35"/>
<polygon fill="#000000" stroke="#000000" points="348.5631,-486.8074 358.096,-482.1841 347.7607,-479.8535 348.5631,-486.8074"/>
</g>
<!-- AlterQuestionColumn&#45;&gt;ApplyRangeFormula -->
<g id="edge62" class="edge">
<title>AlterQuestionColumn-&gt;ApplyRangeFormula</title>
<path fill="none" stroke="#000000" d="M205.2274,-479.9205C201.9888,-476.4229 198.5391,-472.6971 195.1327,-469.0182"/>
<polygon fill="#000000" stroke="#000000" points="197.6454,-466.5804 188.2831,-461.6207 192.5091,-471.3363 197.6454,-466.5804"/>
</g>
<!-- AlterQuestionColumn&#45;&gt;ApplyRangeFormula -->
<g id="edge63" class="edge">
<title>AlterQuestionColumn-&gt;ApplyRangeFormula</title>
<path fill="none" stroke="#000000" d="M205.2274,-479.9205C201.9888,-476.4229 198.5391,-472.6971 195.1327,-469.0182"/>
<polygon fill="#000000" stroke="#000000" points="197.6454,-466.5804 188.2831,-461.6207 192.5091,-471.3363 197.6454,-466.5804"/>
</g>
<!-- AlterQuestionColumn&#45;&gt;ApplyRangeFormula -->
<g id="edge64" class="edge">
<title>AlterQuestionColumn-&gt;ApplyRangeFormula</title>
<path fill="none" stroke="#000000" d="M205.2274,-479.9205C201.9888,-476.4229 198.5391,-472.6971 195.1327,-469.0182"/>
<polygon fill="#000000" stroke="#000000" points="197.6454,-466.5804 188.2831,-461.6207 192.5091,-471.3363 197.6454,-466.5804"/>
</g>
<!-- TriggerEditMode -->
<g id="node15" class="node">
<title>TriggerEditMode</title>
<ellipse fill="none" stroke="#000000" cx="139.8767" cy="-200.9017" rx="78.7318" ry="18"/>
<text text-anchor="middle" x="139.8767" y="-196.7017" font-family="Times,serif" font-size="14.00" fill="#000000">TriggerEditMode</text>
</g>
<!-- TriggerEditMode&#45;&gt;EditMode -->
<g id="edge68" class="edge">
<title>TriggerEditMode-&gt;EditMode</title>
<path fill="none" stroke="#000000" d="M102.3441,-216.9161C86.7086,-225.6834 70.1584,-238.2061 61.3023,-254.8635 33.0279,-308.0448 70.279,-329.8029 71.092,-390.0278 71.6357,-430.3082 65.9103,-476.6318 61.5628,-505.5889"/>
<polygon fill="#000000" stroke="#000000" points="58.055,-505.3694 59.98,-515.7879 64.9722,-506.443 58.055,-505.3694"/>
</g>
<!-- EditMode&#45;&gt;EditMode -->
<g id="edge69" class="edge">
<title>EditMode-&gt;EditMode</title>
<path fill="none" stroke="#000000" d="M103.0469,-540.5924C115.2748,-540.2101 124.5361,-537.9799 124.5361,-533.9017 124.5361,-531.098 120.1587,-529.1677 113.4493,-528.1109"/>
<polygon fill="#000000" stroke="#000000" points="113.3114,-524.5859 103.0469,-527.2111 112.7081,-531.5599 113.3114,-524.5859"/>
</g>
<!-- ProtectOnlyRowColInsertion -->
<g id="node17" class="node">
<title>ProtectOnlyRowColInsertion</title>
<ellipse fill="none" stroke="#000000" cx="365.8767" cy="-308.9017" rx="124.436" ry="18"/>
<text text-anchor="middle" x="365.8767" y="-304.7017" font-family="Times,serif" font-size="14.00" fill="#000000">ProtectOnlyRowColInsertion</text>
</g>
<!-- EditMode&#45;&gt;ProtectOnlyRowColInsertion -->
<g id="edge70" class="edge">
<title>EditMode-&gt;ProtectOnlyRowColInsertion</title>
<path fill="none" stroke="#000000" d="M83.5469,-518.5331C102.4689,-508.0824 128.7076,-494.4921 152.9412,-485.0523 202.4269,-465.776 227.9605,-481.9444 265.1835,-444.0649 274.4746,-434.61 267.9169,-426.2716 277.1215,-416.7325 315.2954,-377.1714 369.1055,-414.5985 388.6376,-363.2095 392.0518,-354.2268 389.8899,-344.5187 385.7865,-335.8289"/>
<polygon fill="#000000" stroke="#000000" points="388.703,-333.875 380.7439,-326.8818 382.6048,-337.312 388.703,-333.875"/>
</g>
<!-- EnlargeNamedRange&#45;&gt;EnlargeNamedRange -->
<g id="edge71" class="edge">
<title>EnlargeNamedRange-&gt;EnlargeNamedRange</title>
<path fill="none" stroke="#000000" d="M359.8464,-558.1178C373.8868,-557.2081 383.4974,-555.1361 383.4974,-551.9017 383.4974,-549.5265 378.3144,-547.7781 370.0001,-546.6566"/>
<polygon fill="#000000" stroke="#000000" points="370.1342,-543.1535 359.8464,-545.6857 369.4678,-550.1217 370.1342,-543.1535"/>
</g>
<!-- ApplyBorders -->
<g id="node24" class="node">
<title>ApplyBorders</title>
<ellipse fill="none" stroke="#000000" cx="352.8767" cy="-605.9017" rx="65.9929" ry="18"/>
<text text-anchor="middle" x="352.8767" y="-601.7017" font-family="Times,serif" font-size="14.00" fill="#000000">ApplyBorders</text>
</g>
<!-- EnlargeNamedRange&#45;&gt;ApplyBorders -->
<g id="edge72" class="edge">
<title>EnlargeNamedRange-&gt;ApplyBorders</title>
<path fill="none" stroke="#000000" d="M297.9514,-569.2849C304.6501,-573.7507 311.9545,-578.6203 318.9857,-583.3077"/>
<polygon fill="#000000" stroke="#000000" points="317.4177,-586.4689 327.6796,-589.1037 321.3006,-580.6445 317.4177,-586.4689"/>
</g>
<!-- VerifyFirstLastZoneInsertion&#45;&gt;VerifyFirstLastZoneInsertion -->
<g id="edge73" class="edge">
<title>VerifyFirstLastZoneInsertion-&gt;VerifyFirstLastZoneInsertion</title>
<path fill="none" stroke="#000000" d="M580.6683,-472.083C591.6992,-471.8346 598.6121,-471.4408 598.6121,-470.9017 598.6121,-470.5564 595.775,-470.2707 590.8358,-470.0446"/>
<polygon fill="#000000" stroke="#000000" points="590.7748,-466.541 580.6683,-469.7204 590.5517,-473.5374 590.7748,-466.541"/>
</g>
<!-- VerifyFirstLastZoneInsertion&#45;&gt;VerifyFirstLastZoneInsertion -->
<g id="edge74" class="edge">
<title>VerifyFirstLastZoneInsertion-&gt;VerifyFirstLastZoneInsertion</title>
<path fill="none" stroke="#000000" d="M562.163,-480.4018C635.0515,-483.2286 706.6121,-480.0619 706.6121,-470.9017 706.6121,-462.171 641.603,-458.8849 572.397,-461.0436"/>
<polygon fill="#000000" stroke="#000000" points="572.0345,-457.5541 562.163,-461.4016 572.2793,-464.5498 572.0345,-457.5541"/>
</g>
<!-- VerifyFirstLastZoneInsertion&#45;&gt;VerifyFirstLastZoneInsertion -->
<g id="edge75" class="edge">
<title>VerifyFirstLastZoneInsertion-&gt;VerifyFirstLastZoneInsertion</title>
<path fill="none" stroke="#000000" d="M566.0207,-479.4073C629.5096,-481.1432 688.6121,-478.308 688.6121,-470.9017 688.6121,-463.886 635.5787,-460.972 576.0202,-462.1596"/>
<polygon fill="#000000" stroke="#000000" points="575.9351,-458.6606 566.0207,-462.3961 576.1007,-465.6586 575.9351,-458.6606"/>
</g>
<!-- VerifyFirstLastZoneInsertion&#45;&gt;VerifyFirstLastZoneInsertion -->
<g id="edge76" class="edge">
<title>VerifyFirstLastZoneInsertion-&gt;VerifyFirstLastZoneInsertion</title>
<path fill="none" stroke="#000000" d="M569.9351,-478.2408C623.5698,-479.0805 670.6121,-476.6342 670.6121,-470.9017 670.6121,-465.5388 629.4384,-463.052 580.2129,-463.4412"/>
<polygon fill="#000000" stroke="#000000" points="579.893,-459.9447 569.9351,-463.5627 579.9758,-466.9442 579.893,-459.9447"/>
</g>
<!-- VerifyFirstLastZoneInsertion&#45;&gt;VerifyFirstLastZoneInsertion -->
<g id="edge77" class="edge">
<title>VerifyFirstLastZoneInsertion-&gt;VerifyFirstLastZoneInsertion</title>
<path fill="none" stroke="#000000" d="M573.5094,-476.8907C616.9445,-477.0699 652.6121,-475.0736 652.6121,-470.9017 652.6121,-467.0558 622.2999,-465.0587 583.534,-464.9106"/>
<polygon fill="#000000" stroke="#000000" points="583.5086,-461.4105 573.5094,-464.9128 583.5102,-468.4105 583.5086,-461.4105"/>
</g>
<!-- VerifyFirstLastZoneInsertion&#45;&gt;VerifyFirstLastZoneInsertion -->
<g id="edge78" class="edge">
<title>VerifyFirstLastZoneInsertion-&gt;VerifyFirstLastZoneInsertion</title>
<path fill="none" stroke="#000000" d="M577.0072,-475.3685C609.7229,-475.1328 634.6121,-473.6439 634.6121,-470.9017 634.6121,-468.4488 614.6961,-466.9986 587.0774,-466.5513"/>
<polygon fill="#000000" stroke="#000000" points="587.047,-463.0509 577.0072,-466.435 586.966,-470.0504 587.047,-463.0509"/>
</g>
<!-- VerifyFirstLastZoneInsertion&#45;&gt;VerifyFirstLastZoneInsertion -->
<g id="edge79" class="edge">
<title>VerifyFirstLastZoneInsertion-&gt;VerifyFirstLastZoneInsertion</title>
<path fill="none" stroke="#000000" d="M579.2025,-473.7258C601.2276,-473.3587 616.6121,-472.4174 616.6121,-470.9017 616.6121,-469.6348 605.8615,-468.7691 589.4681,-468.3047"/>
<polygon fill="#000000" stroke="#000000" points="589.2775,-464.7998 579.2025,-468.0777 589.1226,-471.798 589.2775,-464.7998"/>
</g>
<!-- ResetRangeColors&#45;&gt;ResetRangeColors -->
<g id="edge80" class="edge">
<title>ResetRangeColors-&gt;ResetRangeColors</title>
<path fill="none" stroke="#000000" d="M222.7281,-261.2299C236.3274,-260.3861 245.7879,-258.2767 245.7879,-254.9017 245.7879,-252.4496 240.7938,-250.6655 232.8466,-249.5496"/>
<polygon fill="#000000" stroke="#000000" points="233.018,-246.05 222.7281,-248.5736 232.3458,-253.0177 233.018,-246.05"/>
</g>
<!-- AssignRowColor&#45;&gt;AssignRowColor -->
<g id="edge81" class="edge">
<title>AssignRowColor-&gt;AssignRowColor</title>
<path fill="none" stroke="#000000" d="M591.1982,-585.2809C604.5837,-584.4734 613.972,-582.347 613.972,-578.9017 613.972,-576.3985 609.016,-574.5915 601.1717,-573.4808"/>
<polygon fill="#000000" stroke="#000000" points="601.4871,-569.995 591.1982,-572.5225 600.8176,-576.9629 601.4871,-569.995"/>
</g>
<!-- AssignColumnColor&#45;&gt;AssignColumnColor -->
<g id="edge82" class="edge">
<title>AssignColumnColor-&gt;AssignColumnColor</title>
<path fill="none" stroke="#000000" d="M580.314,-369.147C594.2653,-368.253 603.8533,-366.1713 603.8533,-362.9017 603.8533,-360.5007 598.6825,-358.7402 590.41,-357.6202"/>
<polygon fill="#000000" stroke="#000000" points="590.6014,-354.1227 580.314,-356.6564 589.9361,-361.091 590.6014,-354.1227"/>
</g>
<!-- ApplyColorsToNewColumns&#45;&gt;AssignColumnColor -->
<g id="edge84" class="edge">
<title>ApplyColorsToNewColumns-&gt;AssignColumnColor</title>
<path fill="none" stroke="#000000" d="M432.7464,-399.3695C440.5297,-394.8011 449.0183,-389.8186 457.1503,-385.0455"/>
<polygon fill="#000000" stroke="#000000" points="458.9316,-388.0583 465.7841,-379.9778 455.3882,-382.0214 458.9316,-388.0583"/>
</g>
<!-- ApplyColorsToNewColumns&#45;&gt;ApplyColorsToNewColumns -->
<g id="edge83" class="edge">
<title>ApplyColorsToNewColumns-&gt;ApplyColorsToNewColumns</title>
<path fill="none" stroke="#000000" d="M520.764,-422.7988C535.7547,-421.7678 545.6391,-419.8021 545.6391,-416.9017 545.6391,-414.7264 540.0792,-413.0769 530.975,-411.9532"/>
<polygon fill="#000000" stroke="#000000" points="531.0449,-408.4447 520.764,-411.0046 530.3974,-415.4147 531.0449,-408.4447"/>
</g>
<!-- ApplyBorders&#45;&gt;ApplyBorders -->
<g id="edge85" class="edge">
<title>ApplyBorders-&gt;ApplyBorders</title>
<path fill="none" stroke="#000000" d="M414.2242,-612.4338C427.2304,-611.7705 436.6226,-609.5931 436.6226,-605.9017 436.6226,-603.2485 431.7706,-601.3775 424.212,-600.2886"/>
<polygon fill="#000000" stroke="#000000" points="424.5029,-596.8007 414.2242,-599.3697 423.8615,-603.7712 424.5029,-596.8007"/>
</g>
<!-- CreateExcelValidateDropDownList&#45;&gt;CreateExcelValidateDropDownList -->
<g id="edge88" class="edge">
<title>CreateExcelValidateDropDownList-&gt;CreateExcelValidateDropDownList</title>
<path fill="none" stroke="#000000" d="M380.0189,-368.7052C395.4829,-367.6231 405.4484,-365.7373 405.4484,-363.0479 405.4484,-361.0098 399.7254,-359.4332 390.2235,-358.3182"/>
<polygon fill="#000000" stroke="#000000" points="390.2948,-354.8103 380.0189,-357.3905 389.661,-361.7816 390.2948,-354.8103"/>
</g>
<!-- getPossiblesValues -->
<g id="node26" class="node">
<title>getPossiblesValues</title>
<ellipse fill="none" stroke="#000000" cx="515.8767" cy="-191.9017" rx="85.6879" ry="18"/>
<text text-anchor="middle" x="515.8767" y="-187.7017" font-family="Times,serif" font-size="14.00" fill="#000000">getPossiblesValues</text>
</g>
<!-- CreateExcelValidateDropDownList&#45;&gt;getPossiblesValues -->
<g id="edge89" class="edge">
<title>CreateExcelValidateDropDownList-&gt;getPossiblesValues</title>
<path fill="none" stroke="#000000" d="M234.1221,-344.9506C232.704,-333.4792 233.0131,-318.9378 240.6692,-308.7554 305.9637,-221.9155 395.8388,-324.675 479.1231,-254.9021 490.382,-245.4697 498.9835,-231.6512 505.0243,-219.3577"/>
<polygon fill="#000000" stroke="#000000" points="508.3552,-220.489 509.3218,-209.9384 501.9867,-217.5834 508.3552,-220.489"/>
</g>
<!-- CreateDropDownList -->
<g id="node27" class="node">
<title>CreateDropDownList</title>
<ellipse fill="none" stroke="#000000" cx="479.8767" cy="-524.9017" rx="94.9013" ry="18"/>
<text text-anchor="middle" x="479.8767" y="-520.7017" font-family="Times,serif" font-size="14.00" fill="#000000">CreateDropDownList</text>
</g>
<!-- CreateExcelValidateDropDownList&#45;&gt;CreateDropDownList -->
<g id="edge90" class="edge">
<title>CreateExcelValidateDropDownList-&gt;CreateDropDownList</title>
<path fill="none" stroke="#000000" d="M248.7358,-381.18C263.842,-405.2369 293.7057,-447.3848 330.1458,-470.7889 355.1051,-486.8193 385.452,-498.9193 412.2829,-507.5669"/>
<polygon fill="#000000" stroke="#000000" points="411.4037,-510.959 421.9924,-510.5976 413.4895,-504.2769 411.4037,-510.959"/>
</g>
<!-- TextToUniqueValues -->
<g id="node30" class="node">
<title>TextToUniqueValues</title>
<ellipse fill="none" stroke="#000000" cx="989.6788" cy="-465.814" rx="94.9051" ry="18"/>
<text text-anchor="middle" x="989.6788" y="-461.614" font-family="Times,serif" font-size="14.00" fill="#000000">TextToUniqueValues</text>
</g>
<!-- CreateExcelValidateDropDownList&#45;&gt;TextToUniqueValues -->
<g id="edge86" class="edge">
<title>CreateExcelValidateDropDownList-&gt;TextToUniqueValues</title>
<path fill="none" stroke="#000000" d="M337.087,-376.5884C485.0631,-396.8204 761.5056,-434.617 902.3488,-453.8738"/>
<polygon fill="#000000" stroke="#000000" points="902.2817,-457.3971 912.6637,-455.2841 903.23,-450.4616 902.2817,-457.3971"/>
</g>
<!-- CreateExcelValidateDropDownList&#45;&gt;TextToUniqueValues -->
<g id="edge87" class="edge">
<title>CreateExcelValidateDropDownList-&gt;TextToUniqueValues</title>
<path fill="none" stroke="#000000" d="M337.087,-376.5884C485.0631,-396.8204 761.5056,-434.617 902.3488,-453.8738"/>
<polygon fill="#000000" stroke="#000000" points="902.2817,-457.3971 912.6637,-455.2841 903.23,-450.4616 902.2817,-457.3971"/>
</g>
<!-- getPossiblesValues&#45;&gt;getPossiblesValues -->
<g id="edge91" class="edge">
<title>getPossiblesValues-&gt;getPossiblesValues</title>
<path fill="none" stroke="#000000" d="M596.2326,-198.2031C609.9599,-197.342 619.4706,-195.2416 619.4706,-191.9017 619.4706,-189.4751 614.45,-187.7028 606.4393,-186.5847"/>
<polygon fill="#000000" stroke="#000000" points="606.5225,-183.0766 596.2326,-185.6004 605.8504,-190.0443 606.5225,-183.0766"/>
</g>
<!-- CreateDropDownList&#45;&gt;EditMode -->
<g id="edge93" class="edge">
<title>CreateDropDownList-&gt;EditMode</title>
<path fill="none" stroke="#000000" d="M385.7366,-526.9047C303.6494,-528.6512 187.0498,-531.1321 116.9989,-532.6225"/>
<polygon fill="#000000" stroke="#000000" points="116.5129,-529.132 106.5897,-532.844 116.6619,-536.1304 116.5129,-529.132"/>
</g>
<!-- CreateDropDownList&#45;&gt;CreateDropDownList -->
<g id="edge92" class="edge">
<title>CreateDropDownList-&gt;CreateDropDownList</title>
<path fill="none" stroke="#000000" d="M569.158,-531.0877C583.0833,-530.1629 592.5771,-528.1009 592.5771,-524.9017 592.5771,-522.5523 587.457,-520.8162 579.2218,-519.6934"/>
<polygon fill="#000000" stroke="#000000" points="579.4495,-516.1991 569.158,-518.7157 578.7727,-523.1663 579.4495,-516.1991"/>
</g>
<!-- ApplyRangeFormula&#45;&gt;ApplyRangeFormula -->
<g id="edge94" class="edge">
<title>ApplyRangeFormula-&gt;ApplyRangeFormula</title>
<path fill="none" stroke="#000000" d="M259.0183,-450.1178C272.9266,-449.2081 282.4467,-447.1361 282.4467,-443.9017 282.4467,-441.5265 277.3125,-439.7781 269.0765,-438.6566"/>
<polygon fill="#000000" stroke="#000000" points="269.3084,-435.1628 259.0183,-437.6857 268.6357,-442.1304 269.3084,-435.1628"/>
</g>
<!-- test -->
<g id="node29" class="node">
<title>test</title>
<ellipse fill="none" stroke="#000000" cx="43.8767" cy="-389.9017" rx="27" ry="18"/>
<text text-anchor="middle" x="43.8767" y="-385.7017" font-family="Times,serif" font-size="14.00" fill="#000000">test</text>
</g>
<!-- test&#45;&gt;EditMode -->
<g id="edge95" class="edge">
<title>test-&gt;EditMode</title>
<path fill="none" stroke="#000000" d="M45.5231,-408.1394C47.7404,-432.7007 51.7085,-476.6543 54.3169,-505.5477"/>
<polygon fill="#000000" stroke="#000000" points="50.8585,-506.1673 55.2436,-515.8121 57.8302,-505.5379 50.8585,-506.1673"/>
</g>
<!-- TextToUniqueValues&#45;&gt;TextToUniqueValues -->
<g id="edge96" class="edge">
<title>TextToUniqueValues-&gt;TextToUniqueValues</title>
<path fill="none" stroke="#000000" d="M1083.3852,-468.7339C1094.8591,-468.2111 1102.3811,-467.2378 1102.3811,-465.814 1102.3811,-464.8796 1099.1417,-464.1392 1093.6717,-463.5929"/>
<polygon fill="#000000" stroke="#000000" points="1093.5995,-460.08 1083.3852,-462.894 1093.1249,-467.0639 1093.5995,-460.08"/>
</g>
<!-- TextToUniqueValues&#45;&gt;TextToUniqueValues -->
<g id="edge97" class="edge">
<title>TextToUniqueValues-&gt;TextToUniqueValues</title>
<path fill="none" stroke="#000000" d="M1077.6422,-472.5228C1101.8681,-472.1987 1120.3811,-469.9624 1120.3811,-465.814 1120.3811,-462.2651 1106.8328,-460.1156 1087.7497,-459.3655"/>
<polygon fill="#000000" stroke="#000000" points="1087.729,-455.8639 1077.6422,-459.1052 1087.5487,-462.8616 1087.729,-455.8639"/>
</g>
<!-- MoveCurrentSheetToResultsAnalyser -->
<g id="node31" class="node">
<title>MoveCurrentSheetToResultsAnalyser</title>
<ellipse fill="none" stroke="#000000" cx="800.3304" cy="-355.2419" rx="158.5656" ry="18"/>
<text text-anchor="middle" x="800.3304" y="-351.0419" font-family="Times,serif" font-size="14.00" fill="#000000">MoveCurrentSheetToResultsAnalyser</text>
</g>
<!-- UnprotectCurrentSheet -->
<g id="node32" class="node">
<title>UnprotectCurrentSheet</title>
<ellipse fill="none" stroke="#000000" cx="907.3304" cy="-300.2419" rx="100.6998" ry="18"/>
<text text-anchor="middle" x="907.3304" y="-296.0419" font-family="Times,serif" font-size="14.00" fill="#000000">UnprotectCurrentSheet</text>
</g>
<!-- MyResultsAnalyserFileName -->
<g id="node33" class="node">
<title>MyResultsAnalyserFileName</title>
<ellipse fill="none" stroke="#000000" cx="966.3304" cy="-410.2419" rx="125.6362" ry="18"/>
<text text-anchor="middle" x="966.3304" y="-406.0419" font-family="Times,serif" font-size="14.00" fill="#000000">MyResultsAnalyserFileName</text>
</g>
<!-- MyResultsAnalyserFileName&#45;&gt;MyResultsAnalyserFileName -->
<g id="edge98" class="edge">
<title>MyResultsAnalyserFileName-&gt;MyResultsAnalyserFileName</title>
<path fill="none" stroke="#000000" d="M1085.3633,-416.1201C1100.3112,-415.0841 1110.1483,-413.1247 1110.1483,-410.2419 1110.1483,-408.0798 1104.6149,-406.4371 1095.5421,-405.3138"/>
<polygon fill="#000000" stroke="#000000" points="1095.6454,-401.8083 1085.3633,-404.3636 1094.9947,-408.778 1095.6454,-401.8083"/>
</g>
<!-- GetLinkName -->
<g id="node34" class="node">
<title>GetLinkName</title>
<ellipse fill="none" stroke="#000000" cx="807.3304" cy="-465.2419" rx="66.0512" ry="18"/>
<text text-anchor="middle" x="807.3304" y="-461.0419" font-family="Times,serif" font-size="14.00" fill="#000000">GetLinkName</text>
</g>
<!-- GetLinkName&#45;&gt;GetLinkName -->
<g id="edge99" class="edge">
<title>GetLinkName-&gt;GetLinkName</title>
<path fill="none" stroke="#000000" d="M869.4386,-471.7546C882.3331,-471.069 891.6056,-468.8981 891.6056,-465.2419 891.6056,-462.6711 887.0214,-460.8346 879.8172,-459.7325"/>
<polygon fill="#000000" stroke="#000000" points="879.729,-456.2077 869.4386,-458.7292 879.0554,-463.1752 879.729,-456.2077"/>
</g>
<!-- CreateWorksheetScopedNameRanges -->
<g id="node35" class="node">
<title>CreateWorksheetScopedNameRanges</title>
<ellipse fill="none" stroke="#000000" cx="949.9762" cy="-641.2818" rx="157.9474" ry="18"/>
<text text-anchor="middle" x="949.9762" y="-637.0818" font-family="Times,serif" font-size="14.00" fill="#000000">CreateWorksheetScopedNameRanges</text>
</g>
<!-- DeleteWorkbookScopedNamedRanges -->
<g id="node36" class="node">
<title>DeleteWorkbookScopedNamedRanges</title>
<ellipse fill="none" stroke="#000000" cx="1149.9762" cy="-697.2818" rx="162.0501" ry="18"/>
<text text-anchor="middle" x="1149.9762" y="-693.0818" font-family="Times,serif" font-size="14.00" fill="#000000">DeleteWorkbookScopedNamedRanges</text>
</g>
</g>
</svg>