<?xml version="1.0" encoding="UTF-8" standalone="no"?><!DOCTYPE svg PUBLIC "-//W3C//DTD SVG 1.1//EN" "http://www.w3.org/Graphics/SVG/1.1/DTD/svg11.dtd"><!-- Generated by graphviz version 2.40.1 (20161225.0304)
 --><!-- Title: %0 Pages: 1 --><svg xmlns="http://www.w3.org/2000/svg" xmlns:xlink="http://www.w3.org/1999/xlink" width="670pt" height="475pt" viewBox="36.00 36.00 634.00 439.47">
<g id="graph0" class="graph" transform="scale(.3898 .3898) rotate(0) translate(96.3478 1123.3478)">
<title>%0</title>
<polygon fill="#ffffff" stroke="transparent" points="-4,4 -4,-1031 1530,-1031 1530,4 -4,4"/>
<!-- WorksheetSelectionChange -->
<g id="node1" class="node">
<title>WorksheetSelectionChange</title>
<ellipse fill="none" stroke="#000000" cx="386.4734" cy="-676.7834" rx="118.1004" ry="18"/>
<text text-anchor="middle" x="386.4734" y="-672.5834" font-family="Times,serif" font-size="14.00" fill="#000000">WorksheetSelectionChange</text>
</g>
<!-- WorksheetSelectionChange&#45;&gt;WorksheetSelectionChange -->
<g id="edge1" class="edge">
<title>WorksheetSelectionChange-&gt;WorksheetSelectionChange</title>
<path fill="none" stroke="#000000" d="M498.2389,-682.7358C512.9902,-681.7207 522.7734,-679.7366 522.7734,-676.7834 522.7734,-674.5686 517.2704,-672.8988 508.2956,-671.7741"/>
<polygon fill="#000000" stroke="#000000" points="508.522,-668.28 498.2389,-670.831 507.8684,-675.2495 508.522,-668.28"/>
</g>
<!-- EditMode -->
<g id="node13" class="node">
<title>EditMode</title>
<ellipse fill="none" stroke="#000000" cx="926.0041" cy="-529.653" rx="49.8194" ry="18"/>
<text text-anchor="middle" x="926.0041" y="-525.453" font-family="Times,serif" font-size="14.00" fill="#000000">EditMode</text>
</g>
<!-- WorksheetSelectionChange&#45;&gt;EditMode -->
<g id="edge2" class="edge">
<title>WorksheetSelectionChange-&gt;EditMode</title>
<path fill="none" stroke="#000000" d="M444.2126,-661.0379C550.654,-632.0113 776.0662,-570.5412 876.2314,-543.2261"/>
<polygon fill="#000000" stroke="#000000" points="877.3715,-546.5431 886.0983,-540.5354 875.5298,-539.7897 877.3715,-546.5431"/>
</g>
<!-- WorksheetSelectionChange&#45;&gt;EditMode -->
<g id="edge3" class="edge">
<title>WorksheetSelectionChange-&gt;EditMode</title>
<path fill="none" stroke="#000000" d="M444.2126,-661.0379C550.654,-632.0113 776.0662,-570.5412 876.2314,-543.2261"/>
<polygon fill="#000000" stroke="#000000" points="877.3715,-546.5431 886.0983,-540.5354 875.5298,-539.7897 877.3715,-546.5431"/>
</g>
<!-- ResetRangeColors -->
<g id="node17" class="node">
<title>ResetRangeColors</title>
<ellipse fill="none" stroke="#000000" cx="383.3242" cy="-462.8494" rx="82.8225" ry="18"/>
<text text-anchor="middle" x="383.3242" y="-458.6494" font-family="Times,serif" font-size="14.00" fill="#000000">ResetRangeColors</text>
</g>
<!-- WorksheetSelectionChange&#45;&gt;ResetRangeColors -->
<g id="edge4" class="edge">
<title>WorksheetSelectionChange-&gt;ResetRangeColors</title>
<path fill="none" stroke="#000000" d="M386.2049,-658.5435C385.6552,-621.2041 384.3984,-535.8245 383.7415,-491.2003"/>
<polygon fill="#000000" stroke="#000000" points="387.2389,-490.9905 383.592,-481.0431 380.2397,-491.0936 387.2389,-490.9905"/>
</g>
<!-- WorksheetSelectionChange&#45;&gt;ResetRangeColors -->
<g id="edge5" class="edge">
<title>WorksheetSelectionChange-&gt;ResetRangeColors</title>
<path fill="none" stroke="#000000" d="M386.2049,-658.5435C385.6552,-621.2041 384.3984,-535.8245 383.7415,-491.2003"/>
<polygon fill="#000000" stroke="#000000" points="387.2389,-490.9905 383.592,-481.0431 380.2397,-491.0936 387.2389,-490.9905"/>
</g>
<!-- WorksheetSelectionChange&#45;&gt;ResetRangeColors -->
<g id="edge6" class="edge">
<title>WorksheetSelectionChange-&gt;ResetRangeColors</title>
<path fill="none" stroke="#000000" d="M386.2049,-658.5435C385.6552,-621.2041 384.3984,-535.8245 383.7415,-491.2003"/>
<polygon fill="#000000" stroke="#000000" points="387.2389,-490.9905 383.592,-481.0431 380.2397,-491.0936 387.2389,-490.9905"/>
</g>
<!-- WorksheetSelectionChange&#45;&gt;ResetRangeColors -->
<g id="edge7" class="edge">
<title>WorksheetSelectionChange-&gt;ResetRangeColors</title>
<path fill="none" stroke="#000000" d="M386.2049,-658.5435C385.6552,-621.2041 384.3984,-535.8245 383.7415,-491.2003"/>
<polygon fill="#000000" stroke="#000000" points="387.2389,-490.9905 383.592,-481.0431 380.2397,-491.0936 387.2389,-490.9905"/>
</g>
<!-- WorksheetSelectionChange&#45;&gt;ResetRangeColors -->
<g id="edge8" class="edge">
<title>WorksheetSelectionChange-&gt;ResetRangeColors</title>
<path fill="none" stroke="#000000" d="M386.2049,-658.5435C385.6552,-621.2041 384.3984,-535.8245 383.7415,-491.2003"/>
<polygon fill="#000000" stroke="#000000" points="387.2389,-490.9905 383.592,-481.0431 380.2397,-491.0936 387.2389,-490.9905"/>
</g>
<!-- WorksheetSelectionChange&#45;&gt;ResetRangeColors -->
<g id="edge9" class="edge">
<title>WorksheetSelectionChange-&gt;ResetRangeColors</title>
<path fill="none" stroke="#000000" d="M386.2049,-658.5435C385.6552,-621.2041 384.3984,-535.8245 383.7415,-491.2003"/>
<polygon fill="#000000" stroke="#000000" points="387.2389,-490.9905 383.592,-481.0431 380.2397,-491.0936 387.2389,-490.9905"/>
</g>
<!-- WorksheetSelectionChange&#45;&gt;ResetRangeColors -->
<g id="edge10" class="edge">
<title>WorksheetSelectionChange-&gt;ResetRangeColors</title>
<path fill="none" stroke="#000000" d="M386.2049,-658.5435C385.6552,-621.2041 384.3984,-535.8245 383.7415,-491.2003"/>
<polygon fill="#000000" stroke="#000000" points="387.2389,-490.9905 383.592,-481.0431 380.2397,-491.0936 387.2389,-490.9905"/>
</g>
<!-- WorksheetSelectionChange&#45;&gt;ResetRangeColors -->
<g id="edge11" class="edge">
<title>WorksheetSelectionChange-&gt;ResetRangeColors</title>
<path fill="none" stroke="#000000" d="M386.2049,-658.5435C385.6552,-621.2041 384.3984,-535.8245 383.7415,-491.2003"/>
<polygon fill="#000000" stroke="#000000" points="387.2389,-490.9905 383.592,-481.0431 380.2397,-491.0936 387.2389,-490.9905"/>
</g>
<!-- AssignRowColor -->
<g id="node18" class="node">
<title>AssignRowColor</title>
<ellipse fill="none" stroke="#000000" cx="110.2238" cy="-399.9284" rx="78.1907" ry="18"/>
<text text-anchor="middle" x="110.2238" y="-395.7284" font-family="Times,serif" font-size="14.00" fill="#000000">AssignRowColor</text>
</g>
<!-- WorksheetSelectionChange&#45;&gt;AssignRowColor -->
<g id="edge12" class="edge">
<title>WorksheetSelectionChange-&gt;AssignRowColor</title>
<path fill="none" stroke="#000000" d="M368.3479,-658.6182C320.427,-610.5923 190.3023,-480.1824 135.3027,-425.0622"/>
<polygon fill="#000000" stroke="#000000" points="137.5979,-422.4073 128.0569,-417.8006 132.6427,-427.3516 137.5979,-422.4073"/>
</g>
<!-- AssignColumnColor -->
<g id="node19" class="node">
<title>AssignColumnColor</title>
<ellipse fill="none" stroke="#000000" cx="91.0528" cy="-696.8646" rx="90.9534" ry="18"/>
<text text-anchor="middle" x="91.0528" y="-692.6646" font-family="Times,serif" font-size="14.00" fill="#000000">AssignColumnColor</text>
</g>
<!-- WorksheetSelectionChange&#45;&gt;AssignColumnColor -->
<g id="edge13" class="edge">
<title>WorksheetSelectionChange-&gt;AssignColumnColor</title>
<path fill="none" stroke="#000000" d="M278.1471,-684.1469C248.3914,-686.1696 216.3353,-688.3486 187.3088,-690.3216"/>
<polygon fill="#000000" stroke="#000000" points="186.9164,-686.8401 177.1768,-691.0104 187.3912,-693.824 186.9164,-686.8401"/>
</g>
<!-- WorksheetChange -->
<g id="node2" class="node">
<title>WorksheetChange</title>
<ellipse fill="none" stroke="#000000" cx="593.2495" cy="-1009.3354" rx="82.2276" ry="18"/>
<text text-anchor="middle" x="593.2495" y="-1005.1354" font-family="Times,serif" font-size="14.00" fill="#000000">WorksheetChange</text>
</g>
<!-- WorksheetChange&#45;&gt;WorksheetChange -->
<g id="edge14" class="edge">
<title>WorksheetChange-&gt;WorksheetChange</title>
<path fill="none" stroke="#000000" d="M670.6785,-1015.6636C684.2041,-1014.8198 693.6132,-1012.7104 693.6132,-1009.3354 693.6132,-1006.8833 688.6462,-1005.0993 680.7421,-1003.9833"/>
<polygon fill="#000000" stroke="#000000" points="680.9697,-1000.4891 670.6785,-1003.0073 680.2939,-1007.4564 680.9697,-1000.4891"/>
</g>
<!-- ApplyColorsToNewColumns -->
<g id="node20" class="node">
<title>ApplyColorsToNewColumns</title>
<ellipse fill="none" stroke="#000000" cx="183.8153" cy="-987.6874" rx="124.5254" ry="18"/>
<text text-anchor="middle" x="183.8153" y="-983.4874" font-family="Times,serif" font-size="14.00" fill="#000000">ApplyColorsToNewColumns</text>
</g>
<!-- WorksheetChange&#45;&gt;ApplyColorsToNewColumns -->
<g id="edge15" class="edge">
<title>WorksheetChange-&gt;ApplyColorsToNewColumns</title>
<path fill="none" stroke="#000000" d="M512.847,-1005.0843C455.4745,-1002.0509 377.1371,-997.9089 311.2923,-994.4275"/>
<polygon fill="#000000" stroke="#000000" points="311.426,-990.9298 301.2552,-993.8968 311.0564,-997.92 311.426,-990.9298"/>
</g>
<!-- addEmploye -->
<g id="node3" class="node">
<title>addEmploye</title>
<ellipse fill="none" stroke="#000000" cx="635.7098" cy="-28.6455" rx="59.6955" ry="18"/>
<text text-anchor="middle" x="635.7098" y="-24.4455" font-family="Times,serif" font-size="14.00" fill="#000000">addEmploye</text>
</g>
<!-- AlterEmployeLines -->
<g id="node5" class="node">
<title>AlterEmployeLines</title>
<ellipse fill="none" stroke="#000000" cx="582.0451" cy="-503.4272" rx="87.3963" ry="18"/>
<text text-anchor="middle" x="582.0451" y="-499.2272" font-family="Times,serif" font-size="14.00" fill="#000000">AlterEmployeLines</text>
</g>
<!-- addEmploye&#45;&gt;AlterEmployeLines -->
<g id="edge16" class="edge">
<title>addEmploye-&gt;AlterEmployeLines</title>
<path fill="none" stroke="#000000" d="M626.8255,-46.7166C607.3211,-87.8089 561.8193,-191.9193 553.4055,-285.0404 547.2012,-353.7074 563.9434,-433.9809 574.3867,-475.4487"/>
<polygon fill="#000000" stroke="#000000" points="571.0584,-476.5578 576.9515,-485.3625 577.8352,-474.8046 571.0584,-476.5578"/>
</g>
<!-- RemEmploye -->
<g id="node4" class="node">
<title>RemEmploye</title>
<ellipse fill="none" stroke="#000000" cx="547.2222" cy="-764.0474" rx="64.2862" ry="18"/>
<text text-anchor="middle" x="547.2222" y="-759.8474" font-family="Times,serif" font-size="14.00" fill="#000000">RemEmploye</text>
</g>
<!-- RemEmploye&#45;&gt;AlterEmployeLines -->
<g id="edge17" class="edge">
<title>RemEmploye-&gt;AlterEmployeLines</title>
<path fill="none" stroke="#000000" d="M549.6709,-745.7211C555.6526,-700.9532 571.0431,-585.7679 578.2352,-531.9414"/>
<polygon fill="#000000" stroke="#000000" points="581.7439,-532.1087 579.5992,-521.7332 574.8055,-531.1816 581.7439,-532.1087"/>
</g>
<!-- AlterEmployeLines&#45;&gt;AlterEmployeLines -->
<g id="edge18" class="edge">
<title>AlterEmployeLines-&gt;AlterEmployeLines</title>
<path fill="none" stroke="#000000" d="M664.0841,-509.7009C677.7874,-508.8231 687.2431,-506.7319 687.2431,-503.4272 687.2431,-501.0261 682.2515,-499.2656 674.2659,-498.1457"/>
<polygon fill="#000000" stroke="#000000" points="674.3765,-494.64 664.0841,-497.1535 673.6974,-501.607 674.3765,-494.64"/>
</g>
<!-- AlterEmployeLines&#45;&gt;EditMode -->
<g id="edge19" class="edge">
<title>AlterEmployeLines-&gt;EditMode</title>
<path fill="none" stroke="#000000" d="M663.9949,-509.6756C726.473,-514.4394 811.0282,-520.8864 866.9812,-525.1527"/>
<polygon fill="#000000" stroke="#000000" points="866.847,-528.6525 877.0842,-525.923 867.3793,-521.6728 866.847,-528.6525"/>
</g>
<!-- AlterEmployeLines&#45;&gt;EditMode -->
<g id="edge31" class="edge">
<title>AlterEmployeLines-&gt;EditMode</title>
<path fill="none" stroke="#000000" d="M663.9949,-509.6756C726.473,-514.4394 811.0282,-520.8864 866.9812,-525.1527"/>
<polygon fill="#000000" stroke="#000000" points="866.847,-528.6525 877.0842,-525.923 867.3793,-521.6728 866.847,-528.6525"/>
</g>
<!-- AlterEmployeLines&#45;&gt;EditMode -->
<g id="edge32" class="edge">
<title>AlterEmployeLines-&gt;EditMode</title>
<path fill="none" stroke="#000000" d="M663.9949,-509.6756C726.473,-514.4394 811.0282,-520.8864 866.9812,-525.1527"/>
<polygon fill="#000000" stroke="#000000" points="866.847,-528.6525 877.0842,-525.923 867.3793,-521.6728 866.847,-528.6525"/>
</g>
<!-- AlterEmployeLines&#45;&gt;EditMode -->
<g id="edge33" class="edge">
<title>AlterEmployeLines-&gt;EditMode</title>
<path fill="none" stroke="#000000" d="M663.9949,-509.6756C726.473,-514.4394 811.0282,-520.8864 866.9812,-525.1527"/>
<polygon fill="#000000" stroke="#000000" points="866.847,-528.6525 877.0842,-525.923 867.3793,-521.6728 866.847,-528.6525"/>
</g>
<!-- AlterEmployeLines&#45;&gt;EditMode -->
<g id="edge34" class="edge">
<title>AlterEmployeLines-&gt;EditMode</title>
<path fill="none" stroke="#000000" d="M663.9949,-509.6756C726.473,-514.4394 811.0282,-520.8864 866.9812,-525.1527"/>
<polygon fill="#000000" stroke="#000000" points="866.847,-528.6525 877.0842,-525.923 867.3793,-521.6728 866.847,-528.6525"/>
</g>
<!-- EnlargeNamedRange -->
<g id="node15" class="node">
<title>EnlargeNamedRange</title>
<ellipse fill="none" stroke="#000000" cx="450.4311" cy="-278.307" rx="93.7417" ry="18"/>
<text text-anchor="middle" x="450.4311" y="-274.107" font-family="Times,serif" font-size="14.00" fill="#000000">EnlargeNamedRange</text>
</g>
<!-- AlterEmployeLines&#45;&gt;EnlargeNamedRange -->
<g id="edge21" class="edge">
<title>AlterEmployeLines-&gt;EnlargeNamedRange</title>
<path fill="none" stroke="#000000" d="M571.4971,-485.3852C548.4418,-445.9502 493.4511,-351.8909 466.2386,-305.3451"/>
<polygon fill="#000000" stroke="#000000" points="469.098,-303.3013 461.0294,-296.435 463.055,-306.8344 469.098,-303.3013"/>
</g>
<!-- AlterEmployeLines&#45;&gt;EnlargeNamedRange -->
<g id="edge22" class="edge">
<title>AlterEmployeLines-&gt;EnlargeNamedRange</title>
<path fill="none" stroke="#000000" d="M571.4971,-485.3852C548.4418,-445.9502 493.4511,-351.8909 466.2386,-305.3451"/>
<polygon fill="#000000" stroke="#000000" points="469.098,-303.3013 461.0294,-296.435 463.055,-306.8344 469.098,-303.3013"/>
</g>
<!-- AlterEmployeLines&#45;&gt;EnlargeNamedRange -->
<g id="edge23" class="edge">
<title>AlterEmployeLines-&gt;EnlargeNamedRange</title>
<path fill="none" stroke="#000000" d="M571.4971,-485.3852C548.4418,-445.9502 493.4511,-351.8909 466.2386,-305.3451"/>
<polygon fill="#000000" stroke="#000000" points="469.098,-303.3013 461.0294,-296.435 463.055,-306.8344 469.098,-303.3013"/>
</g>
<!-- AlterEmployeLines&#45;&gt;EnlargeNamedRange -->
<g id="edge25" class="edge">
<title>AlterEmployeLines-&gt;EnlargeNamedRange</title>
<path fill="none" stroke="#000000" d="M571.4971,-485.3852C548.4418,-445.9502 493.4511,-351.8909 466.2386,-305.3451"/>
<polygon fill="#000000" stroke="#000000" points="469.098,-303.3013 461.0294,-296.435 463.055,-306.8344 469.098,-303.3013"/>
</g>
<!-- AlterEmployeLines&#45;&gt;EnlargeNamedRange -->
<g id="edge26" class="edge">
<title>AlterEmployeLines-&gt;EnlargeNamedRange</title>
<path fill="none" stroke="#000000" d="M571.4971,-485.3852C548.4418,-445.9502 493.4511,-351.8909 466.2386,-305.3451"/>
<polygon fill="#000000" stroke="#000000" points="469.098,-303.3013 461.0294,-296.435 463.055,-306.8344 469.098,-303.3013"/>
</g>
<!-- AlterEmployeLines&#45;&gt;EnlargeNamedRange -->
<g id="edge27" class="edge">
<title>AlterEmployeLines-&gt;EnlargeNamedRange</title>
<path fill="none" stroke="#000000" d="M571.4971,-485.3852C548.4418,-445.9502 493.4511,-351.8909 466.2386,-305.3451"/>
<polygon fill="#000000" stroke="#000000" points="469.098,-303.3013 461.0294,-296.435 463.055,-306.8344 469.098,-303.3013"/>
</g>
<!-- VerifyFirstLastZoneInsertion -->
<g id="node16" class="node">
<title>VerifyFirstLastZoneInsertion</title>
<ellipse fill="none" stroke="#000000" cx="679.136" cy="-285.1621" rx="124.9713" ry="18"/>
<text text-anchor="middle" x="679.136" y="-280.9621" font-family="Times,serif" font-size="14.00" fill="#000000">VerifyFirstLastZoneInsertion</text>
</g>
<!-- AlterEmployeLines&#45;&gt;VerifyFirstLastZoneInsertion -->
<g id="edge20" class="edge">
<title>AlterEmployeLines-&gt;VerifyFirstLastZoneInsertion</title>
<path fill="none" stroke="#000000" d="M590.1561,-485.1934C607.2251,-446.8214 646.933,-357.556 667.0268,-312.3842"/>
<polygon fill="#000000" stroke="#000000" points="670.2499,-313.7498 671.1164,-303.1904 663.8542,-310.9047 670.2499,-313.7498"/>
</g>
<!-- AlterEmployeLines&#45;&gt;ResetRangeColors -->
<g id="edge24" class="edge">
<title>AlterEmployeLines-&gt;ResetRangeColors</title>
<path fill="none" stroke="#000000" d="M519.986,-490.755C499.0457,-486.4791 475.5196,-481.6752 453.966,-477.2741"/>
<polygon fill="#000000" stroke="#000000" points="454.3902,-473.7886 443.8921,-475.217 452.9897,-480.647 454.3902,-473.7886"/>
</g>
<!-- ApplyRangeFormula -->
<g id="node25" class="node">
<title>ApplyRangeFormula</title>
<ellipse fill="none" stroke="#000000" cx="732.3845" cy="-618.8726" rx="92.6402" ry="18"/>
<text text-anchor="middle" x="732.3845" y="-614.6726" font-family="Times,serif" font-size="14.00" fill="#000000">ApplyRangeFormula</text>
</g>
<!-- AlterEmployeLines&#45;&gt;ApplyRangeFormula -->
<g id="edge28" class="edge">
<title>AlterEmployeLines-&gt;ApplyRangeFormula</title>
<path fill="none" stroke="#000000" d="M604.8784,-520.9609C630.5968,-540.7099 672.5414,-572.9191 701.2499,-594.9644"/>
<polygon fill="#000000" stroke="#000000" points="699.2732,-597.8594 709.3363,-601.1739 703.5366,-592.3074 699.2732,-597.8594"/>
</g>
<!-- AlterEmployeLines&#45;&gt;ApplyRangeFormula -->
<g id="edge29" class="edge">
<title>AlterEmployeLines-&gt;ApplyRangeFormula</title>
<path fill="none" stroke="#000000" d="M604.8784,-520.9609C630.5968,-540.7099 672.5414,-572.9191 701.2499,-594.9644"/>
<polygon fill="#000000" stroke="#000000" points="699.2732,-597.8594 709.3363,-601.1739 703.5366,-592.3074 699.2732,-597.8594"/>
</g>
<!-- AlterEmployeLines&#45;&gt;ApplyRangeFormula -->
<g id="edge30" class="edge">
<title>AlterEmployeLines-&gt;ApplyRangeFormula</title>
<path fill="none" stroke="#000000" d="M604.8784,-520.9609C630.5968,-540.7099 672.5414,-572.9191 701.2499,-594.9644"/>
<polygon fill="#000000" stroke="#000000" points="699.2732,-597.8594 709.3363,-601.1739 703.5366,-592.3074 699.2732,-597.8594"/>
</g>
<!-- AddCat -->
<g id="node6" class="node">
<title>AddCat</title>
<ellipse fill="none" stroke="#000000" cx="410.4252" cy="-18.3335" rx="41.1509" ry="18"/>
<text text-anchor="middle" x="410.4252" y="-14.1335" font-family="Times,serif" font-size="14.00" fill="#000000">AddCat</text>
</g>
<!-- AlterCatLine -->
<g id="node8" class="node">
<title>AlterCatLine</title>
<ellipse fill="none" stroke="#000000" cx="762.6098" cy="-446.3586" rx="61.9712" ry="18"/>
<text text-anchor="middle" x="762.6098" y="-442.1586" font-family="Times,serif" font-size="14.00" fill="#000000">AlterCatLine</text>
</g>
<!-- AddCat&#45;&gt;AlterCatLine -->
<g id="edge35" class="edge">
<title>AddCat-&gt;AlterCatLine</title>
<path fill="none" stroke="#000000" d="M417.023,-36.4204C434.2186,-81.8697 483.944,-203.0757 553.4055,-285.0404 604.2775,-345.0695 680.9225,-397.0913 725.9483,-424.8778"/>
<polygon fill="#000000" stroke="#000000" points="724.1559,-427.8842 734.5149,-430.1072 727.8031,-421.9094 724.1559,-427.8842"/>
</g>
<!-- RemCat -->
<g id="node7" class="node">
<title>RemCat</title>
<ellipse fill="none" stroke="#000000" cx="834.9791" cy="-29.1434" rx="42.8732" ry="18"/>
<text text-anchor="middle" x="834.9791" y="-24.9434" font-family="Times,serif" font-size="14.00" fill="#000000">RemCat</text>
</g>
<!-- RemCat&#45;&gt;AlterCatLine -->
<g id="edge36" class="edge">
<title>RemCat-&gt;AlterCatLine</title>
<path fill="none" stroke="#000000" d="M835.1421,-47.3239C835.0347,-89.9451 831.9043,-199.2087 804.8665,-285.2838 803.4256,-289.8708 801.48,-290.3308 799.759,-294.8204 783.8008,-336.4513 773.0064,-387.1919 767.3325,-418.1189"/>
<polygon fill="#000000" stroke="#000000" points="763.8476,-417.7255 765.5391,-428.1845 770.739,-418.9535 763.8476,-417.7255"/>
</g>
<!-- AlterCatLine&#45;&gt;AlterCatLine -->
<g id="edge37" class="edge">
<title>AlterCatLine-&gt;AlterCatLine</title>
<path fill="none" stroke="#000000" d="M820.4891,-452.9269C833.2798,-452.3097 842.5954,-450.1203 842.5954,-446.3586 842.5954,-443.7136 837.9899,-441.846 830.8092,-440.7556"/>
<polygon fill="#000000" stroke="#000000" points="830.7717,-437.2369 820.4891,-439.7902 830.1197,-444.2065 830.7717,-437.2369"/>
</g>
<!-- AlterCatLine&#45;&gt;EditMode -->
<g id="edge38" class="edge">
<title>AlterCatLine-&gt;EditMode</title>
<path fill="none" stroke="#000000" d="M793.343,-462.0256C820.2031,-475.7182 859.3003,-495.649 888.0956,-510.3282"/>
<polygon fill="#000000" stroke="#000000" points="886.5554,-513.4715 897.0542,-514.895 889.7346,-507.2351 886.5554,-513.4715"/>
</g>
<!-- AlterCatLine&#45;&gt;EditMode -->
<g id="edge43" class="edge">
<title>AlterCatLine-&gt;EditMode</title>
<path fill="none" stroke="#000000" d="M793.343,-462.0256C820.2031,-475.7182 859.3003,-495.649 888.0956,-510.3282"/>
<polygon fill="#000000" stroke="#000000" points="886.5554,-513.4715 897.0542,-514.895 889.7346,-507.2351 886.5554,-513.4715"/>
</g>
<!-- AlterCatLine&#45;&gt;EditMode -->
<g id="edge44" class="edge">
<title>AlterCatLine-&gt;EditMode</title>
<path fill="none" stroke="#000000" d="M793.343,-462.0256C820.2031,-475.7182 859.3003,-495.649 888.0956,-510.3282"/>
<polygon fill="#000000" stroke="#000000" points="886.5554,-513.4715 897.0542,-514.895 889.7346,-507.2351 886.5554,-513.4715"/>
</g>
<!-- AlterCatLine&#45;&gt;EditMode -->
<g id="edge45" class="edge">
<title>AlterCatLine-&gt;EditMode</title>
<path fill="none" stroke="#000000" d="M793.343,-462.0256C820.2031,-475.7182 859.3003,-495.649 888.0956,-510.3282"/>
<polygon fill="#000000" stroke="#000000" points="886.5554,-513.4715 897.0542,-514.895 889.7346,-507.2351 886.5554,-513.4715"/>
</g>
<!-- AlterCatLine&#45;&gt;EnlargeNamedRange -->
<g id="edge40" class="edge">
<title>AlterCatLine-&gt;EnlargeNamedRange</title>
<path fill="none" stroke="#000000" d="M732.9593,-430.3972C676.8199,-400.1763 554.9323,-334.562 491.1676,-300.2363"/>
<polygon fill="#000000" stroke="#000000" points="492.6605,-297.065 482.1962,-295.4068 489.3424,-303.2287 492.6605,-297.065"/>
</g>
<!-- AlterCatLine&#45;&gt;EnlargeNamedRange -->
<g id="edge41" class="edge">
<title>AlterCatLine-&gt;EnlargeNamedRange</title>
<path fill="none" stroke="#000000" d="M732.9593,-430.3972C676.8199,-400.1763 554.9323,-334.562 491.1676,-300.2363"/>
<polygon fill="#000000" stroke="#000000" points="492.6605,-297.065 482.1962,-295.4068 489.3424,-303.2287 492.6605,-297.065"/>
</g>
<!-- AlterCatLine&#45;&gt;VerifyFirstLastZoneInsertion -->
<g id="edge39" class="edge">
<title>AlterCatLine-&gt;VerifyFirstLastZoneInsertion</title>
<path fill="none" stroke="#000000" d="M753.3577,-428.4918C738.8311,-400.4396 710.5648,-345.8543 693.4157,-312.7376"/>
<polygon fill="#000000" stroke="#000000" points="696.3925,-310.8748 688.686,-303.6043 690.1765,-314.0937 696.3925,-310.8748"/>
</g>
<!-- CreateExcelValidateDropDownList -->
<g id="node22" class="node">
<title>CreateExcelValidateDropDownList</title>
<ellipse fill="none" stroke="#000000" cx="985.939" cy="-751.8777" rx="149.2928" ry="18"/>
<text text-anchor="middle" x="985.939" y="-747.6777" font-family="Times,serif" font-size="14.00" fill="#000000">CreateExcelValidateDropDownList</text>
</g>
<!-- AlterCatLine&#45;&gt;CreateExcelValidateDropDownList -->
<g id="edge42" class="edge">
<title>AlterCatLine-&gt;CreateExcelValidateDropDownList</title>
<path fill="none" stroke="#000000" d="M775.5822,-464.1051C813.1149,-515.4507 921.9736,-664.3717 966.5548,-725.3597"/>
<polygon fill="#000000" stroke="#000000" points="963.9229,-727.6902 972.6498,-733.6978 969.574,-723.5593 963.9229,-727.6902"/>
</g>
<!-- AddQuestion -->
<g id="node9" class="node">
<title>AddQuestion</title>
<ellipse fill="none" stroke="#000000" cx="1068.3249" cy="-33.5896" rx="62.5624" ry="18"/>
<text text-anchor="middle" x="1068.3249" y="-29.3896" font-family="Times,serif" font-size="14.00" fill="#000000">AddQuestion</text>
</g>
<!-- AlterQuestionColumn -->
<g id="node11" class="node">
<title>AlterQuestionColumn</title>
<ellipse fill="none" stroke="#000000" cx="897.3983" cy="-294.8572" rx="96.7293" ry="18"/>
<text text-anchor="middle" x="897.3983" y="-290.6572" font-family="Times,serif" font-size="14.00" fill="#000000">AlterQuestionColumn</text>
</g>
<!-- AddQuestion&#45;&gt;AlterQuestionColumn -->
<g id="edge46" class="edge">
<title>AddQuestion-&gt;AlterQuestionColumn</title>
<path fill="none" stroke="#000000" d="M1056.5764,-51.5476C1027.0584,-96.6669 949.6634,-214.968 914.8296,-268.2127"/>
<polygon fill="#000000" stroke="#000000" points="911.7748,-266.4892 909.2289,-276.7736 917.6326,-270.3215 911.7748,-266.4892"/>
</g>
<!-- RemQuestion -->
<g id="node10" class="node">
<title>RemQuestion</title>
<ellipse fill="none" stroke="#000000" cx="1378.9677" cy="-92.8113" rx="64.2843" ry="18"/>
<text text-anchor="middle" x="1378.9677" y="-88.6113" font-family="Times,serif" font-size="14.00" fill="#000000">RemQuestion</text>
</g>
<!-- RemQuestion&#45;&gt;AlterQuestionColumn -->
<g id="edge47" class="edge">
<title>RemQuestion-&gt;AlterQuestionColumn</title>
<path fill="none" stroke="#000000" d="M1343.1651,-107.8325C1257.9399,-143.5894 1042.9335,-233.7969 946.0544,-274.4432"/>
<polygon fill="#000000" stroke="#000000" points="944.6455,-271.2387 936.7784,-278.335 947.3538,-277.6936 944.6455,-271.2387"/>
</g>
<!-- AlterQuestionColumn&#45;&gt;AlterQuestionColumn -->
<g id="edge48" class="edge">
<title>AlterQuestionColumn-&gt;AlterQuestionColumn</title>
<path fill="none" stroke="#000000" d="M988.394,-301.0432C1002.5867,-300.1185 1012.2628,-298.0565 1012.2628,-294.8572 1012.2628,-292.4828 1006.9328,-290.7348 998.3821,-289.6133"/>
<polygon fill="#000000" stroke="#000000" points="998.6785,-286.1258 988.394,-288.6713 998.0211,-293.0948 998.6785,-286.1258"/>
</g>
<!-- AlterQuestionColumn&#45;&gt;EditMode -->
<g id="edge49" class="edge">
<title>AlterQuestionColumn-&gt;EditMode</title>
<path fill="none" stroke="#000000" d="M899.5954,-312.8914C904.5457,-353.5235 916.6027,-452.4863 922.5586,-501.3719"/>
<polygon fill="#000000" stroke="#000000" points="919.1157,-502.0541 923.7995,-511.5574 926.0643,-501.2075 919.1157,-502.0541"/>
</g>
<!-- AlterQuestionColumn&#45;&gt;EditMode -->
<g id="edge63" class="edge">
<title>AlterQuestionColumn-&gt;EditMode</title>
<path fill="none" stroke="#000000" d="M899.5954,-312.8914C904.5457,-353.5235 916.6027,-452.4863 922.5586,-501.3719"/>
<polygon fill="#000000" stroke="#000000" points="919.1157,-502.0541 923.7995,-511.5574 926.0643,-501.2075 919.1157,-502.0541"/>
</g>
<!-- AlterQuestionColumn&#45;&gt;EditMode -->
<g id="edge64" class="edge">
<title>AlterQuestionColumn-&gt;EditMode</title>
<path fill="none" stroke="#000000" d="M899.5954,-312.8914C904.5457,-353.5235 916.6027,-452.4863 922.5586,-501.3719"/>
<polygon fill="#000000" stroke="#000000" points="919.1157,-502.0541 923.7995,-511.5574 926.0643,-501.2075 919.1157,-502.0541"/>
</g>
<!-- AlterQuestionColumn&#45;&gt;EditMode -->
<g id="edge65" class="edge">
<title>AlterQuestionColumn-&gt;EditMode</title>
<path fill="none" stroke="#000000" d="M899.5954,-312.8914C904.5457,-353.5235 916.6027,-452.4863 922.5586,-501.3719"/>
<polygon fill="#000000" stroke="#000000" points="919.1157,-502.0541 923.7995,-511.5574 926.0643,-501.2075 919.1157,-502.0541"/>
</g>
<!-- AlterQuestionColumn&#45;&gt;EnlargeNamedRange -->
<g id="edge51" class="edge">
<title>AlterQuestionColumn-&gt;EnlargeNamedRange</title>
<path fill="none" stroke="#000000" d="M805.2105,-300.4474C766.0851,-302.2918 719.974,-303.7703 678.2928,-303.3057 638.8187,-302.8656 628.9128,-301.8604 589.6349,-297.9055 571.3999,-296.0694 551.885,-293.6241 533.4101,-291.0851"/>
<polygon fill="#000000" stroke="#000000" points="533.6562,-287.5855 523.268,-289.6681 532.6875,-294.5182 533.6562,-287.5855"/>
</g>
<!-- AlterQuestionColumn&#45;&gt;EnlargeNamedRange -->
<g id="edge52" class="edge">
<title>AlterQuestionColumn-&gt;EnlargeNamedRange</title>
<path fill="none" stroke="#000000" d="M805.2105,-300.4474C766.0851,-302.2918 719.974,-303.7703 678.2928,-303.3057 638.8187,-302.8656 628.9128,-301.8604 589.6349,-297.9055 571.3999,-296.0694 551.885,-293.6241 533.4101,-291.0851"/>
<polygon fill="#000000" stroke="#000000" points="533.6562,-287.5855 523.268,-289.6681 532.6875,-294.5182 533.6562,-287.5855"/>
</g>
<!-- AlterQuestionColumn&#45;&gt;EnlargeNamedRange -->
<g id="edge53" class="edge">
<title>AlterQuestionColumn-&gt;EnlargeNamedRange</title>
<path fill="none" stroke="#000000" d="M805.2105,-300.4474C766.0851,-302.2918 719.974,-303.7703 678.2928,-303.3057 638.8187,-302.8656 628.9128,-301.8604 589.6349,-297.9055 571.3999,-296.0694 551.885,-293.6241 533.4101,-291.0851"/>
<polygon fill="#000000" stroke="#000000" points="533.6562,-287.5855 523.268,-289.6681 532.6875,-294.5182 533.6562,-287.5855"/>
</g>
<!-- AlterQuestionColumn&#45;&gt;EnlargeNamedRange -->
<g id="edge54" class="edge">
<title>AlterQuestionColumn-&gt;EnlargeNamedRange</title>
<path fill="none" stroke="#000000" d="M805.2105,-300.4474C766.0851,-302.2918 719.974,-303.7703 678.2928,-303.3057 638.8187,-302.8656 628.9128,-301.8604 589.6349,-297.9055 571.3999,-296.0694 551.885,-293.6241 533.4101,-291.0851"/>
<polygon fill="#000000" stroke="#000000" points="533.6562,-287.5855 523.268,-289.6681 532.6875,-294.5182 533.6562,-287.5855"/>
</g>
<!-- AlterQuestionColumn&#45;&gt;EnlargeNamedRange -->
<g id="edge55" class="edge">
<title>AlterQuestionColumn-&gt;EnlargeNamedRange</title>
<path fill="none" stroke="#000000" d="M805.2105,-300.4474C766.0851,-302.2918 719.974,-303.7703 678.2928,-303.3057 638.8187,-302.8656 628.9128,-301.8604 589.6349,-297.9055 571.3999,-296.0694 551.885,-293.6241 533.4101,-291.0851"/>
<polygon fill="#000000" stroke="#000000" points="533.6562,-287.5855 523.268,-289.6681 532.6875,-294.5182 533.6562,-287.5855"/>
</g>
<!-- AlterQuestionColumn&#45;&gt;EnlargeNamedRange -->
<g id="edge56" class="edge">
<title>AlterQuestionColumn-&gt;EnlargeNamedRange</title>
<path fill="none" stroke="#000000" d="M805.2105,-300.4474C766.0851,-302.2918 719.974,-303.7703 678.2928,-303.3057 638.8187,-302.8656 628.9128,-301.8604 589.6349,-297.9055 571.3999,-296.0694 551.885,-293.6241 533.4101,-291.0851"/>
<polygon fill="#000000" stroke="#000000" points="533.6562,-287.5855 523.268,-289.6681 532.6875,-294.5182 533.6562,-287.5855"/>
</g>
<!-- AlterQuestionColumn&#45;&gt;EnlargeNamedRange -->
<g id="edge57" class="edge">
<title>AlterQuestionColumn-&gt;EnlargeNamedRange</title>
<path fill="none" stroke="#000000" d="M805.2105,-300.4474C766.0851,-302.2918 719.974,-303.7703 678.2928,-303.3057 638.8187,-302.8656 628.9128,-301.8604 589.6349,-297.9055 571.3999,-296.0694 551.885,-293.6241 533.4101,-291.0851"/>
<polygon fill="#000000" stroke="#000000" points="533.6562,-287.5855 523.268,-289.6681 532.6875,-294.5182 533.6562,-287.5855"/>
</g>
<!-- AlterQuestionColumn&#45;&gt;EnlargeNamedRange -->
<g id="edge58" class="edge">
<title>AlterQuestionColumn-&gt;EnlargeNamedRange</title>
<path fill="none" stroke="#000000" d="M805.2105,-300.4474C766.0851,-302.2918 719.974,-303.7703 678.2928,-303.3057 638.8187,-302.8656 628.9128,-301.8604 589.6349,-297.9055 571.3999,-296.0694 551.885,-293.6241 533.4101,-291.0851"/>
<polygon fill="#000000" stroke="#000000" points="533.6562,-287.5855 523.268,-289.6681 532.6875,-294.5182 533.6562,-287.5855"/>
</g>
<!-- AlterQuestionColumn&#45;&gt;EnlargeNamedRange -->
<g id="edge59" class="edge">
<title>AlterQuestionColumn-&gt;EnlargeNamedRange</title>
<path fill="none" stroke="#000000" d="M805.2105,-300.4474C766.0851,-302.2918 719.974,-303.7703 678.2928,-303.3057 638.8187,-302.8656 628.9128,-301.8604 589.6349,-297.9055 571.3999,-296.0694 551.885,-293.6241 533.4101,-291.0851"/>
<polygon fill="#000000" stroke="#000000" points="533.6562,-287.5855 523.268,-289.6681 532.6875,-294.5182 533.6562,-287.5855"/>
</g>
<!-- AlterQuestionColumn&#45;&gt;VerifyFirstLastZoneInsertion -->
<g id="edge50" class="edge">
<title>AlterQuestionColumn-&gt;VerifyFirstLastZoneInsertion</title>
<path fill="none" stroke="#000000" d="M802.9347,-290.6612C802.8411,-290.657 802.7474,-290.6529 802.6538,-290.6487"/>
<polygon fill="#000000" stroke="#000000" points="808.5769,-287.4086 798.4313,-290.4612 808.2661,-294.4017 808.5769,-287.4086"/>
</g>
<!-- AlterQuestionColumn&#45;&gt;ApplyRangeFormula -->
<g id="edge60" class="edge">
<title>AlterQuestionColumn-&gt;ApplyRangeFormula</title>
<path fill="none" stroke="#000000" d="M888.9991,-313.2004C875.802,-341.8513 849.2213,-398.8753 825.0899,-446.4761 798.6844,-498.5628 765.9563,-558.4028 747.2922,-592.117"/>
<polygon fill="#000000" stroke="#000000" points="744.2075,-590.4625 742.4178,-600.9051 750.3289,-593.8578 744.2075,-590.4625"/>
</g>
<!-- AlterQuestionColumn&#45;&gt;ApplyRangeFormula -->
<g id="edge61" class="edge">
<title>AlterQuestionColumn-&gt;ApplyRangeFormula</title>
<path fill="none" stroke="#000000" d="M888.9991,-313.2004C875.802,-341.8513 849.2213,-398.8753 825.0899,-446.4761 798.6844,-498.5628 765.9563,-558.4028 747.2922,-592.117"/>
<polygon fill="#000000" stroke="#000000" points="744.2075,-590.4625 742.4178,-600.9051 750.3289,-593.8578 744.2075,-590.4625"/>
</g>
<!-- AlterQuestionColumn&#45;&gt;ApplyRangeFormula -->
<g id="edge62" class="edge">
<title>AlterQuestionColumn-&gt;ApplyRangeFormula</title>
<path fill="none" stroke="#000000" d="M888.9991,-313.2004C875.802,-341.8513 849.2213,-398.8753 825.0899,-446.4761 798.6844,-498.5628 765.9563,-558.4028 747.2922,-592.117"/>
<polygon fill="#000000" stroke="#000000" points="744.2075,-590.4625 742.4178,-600.9051 750.3289,-593.8578 744.2075,-590.4625"/>
</g>
<!-- TriggerEditMode -->
<g id="node12" class="node">
<title>TriggerEditMode</title>
<ellipse fill="none" stroke="#000000" cx="773.4382" cy="-801.6445" rx="78.7318" ry="18"/>
<text text-anchor="middle" x="773.4382" y="-797.4445" font-family="Times,serif" font-size="14.00" fill="#000000">TriggerEditMode</text>
</g>
<!-- TriggerEditMode&#45;&gt;EditMode -->
<g id="edge66" class="edge">
<title>TriggerEditMode-&gt;EditMode</title>
<path fill="none" stroke="#000000" d="M783.6854,-783.376C810.022,-736.4237 880.1665,-611.3715 911.0509,-556.3113"/>
<polygon fill="#000000" stroke="#000000" points="914.1611,-557.9207 916.0008,-547.4868 908.056,-554.4962 914.1611,-557.9207"/>
</g>
<!-- EditMode&#45;&gt;EditMode -->
<g id="edge67" class="edge">
<title>EditMode-&gt;EditMode</title>
<path fill="none" stroke="#000000" d="M972.1744,-536.3437C984.4023,-535.9614 993.6636,-533.7311 993.6636,-529.653 993.6636,-526.8493 989.2862,-524.919 982.5768,-523.8621"/>
<polygon fill="#000000" stroke="#000000" points="982.4389,-520.3372 972.1744,-522.9623 981.8356,-527.3112 982.4389,-520.3372"/>
</g>
<!-- ProtectOnlyRowColInsertion -->
<g id="node14" class="node">
<title>ProtectOnlyRowColInsertion</title>
<ellipse fill="none" stroke="#000000" cx="1401.9545" cy="-513.4067" rx="124.436" ry="18"/>
<text text-anchor="middle" x="1401.9545" y="-509.2067" font-family="Times,serif" font-size="14.00" fill="#000000">ProtectOnlyRowColInsertion</text>
</g>
<!-- EditMode&#45;&gt;ProtectOnlyRowColInsertion -->
<g id="edge68" class="edge">
<title>EditMode-&gt;ProtectOnlyRowColInsertion</title>
<path fill="none" stroke="#000000" d="M975.5923,-527.9603C1044.8082,-525.5977 1172.8793,-521.2261 1270.6552,-517.8885"/>
<polygon fill="#000000" stroke="#000000" points="1271.0433,-521.3774 1280.9181,-517.5382 1270.8044,-514.3815 1271.0433,-521.3774"/>
</g>
<!-- EnlargeNamedRange&#45;&gt;EnlargeNamedRange -->
<g id="edge69" class="edge">
<title>EnlargeNamedRange-&gt;EnlargeNamedRange</title>
<path fill="none" stroke="#000000" d="M538.4008,-284.5231C552.4413,-283.6134 562.0519,-281.5414 562.0519,-278.307 562.0519,-275.9318 556.8688,-274.1834 548.5545,-273.0619"/>
<polygon fill="#000000" stroke="#000000" points="548.6886,-269.5588 538.4008,-272.091 548.0222,-276.5271 548.6886,-269.5588"/>
</g>
<!-- ApplyBorders -->
<g id="node21" class="node">
<title>ApplyBorders</title>
<ellipse fill="none" stroke="#000000" cx="110.6579" cy="-69.3648" rx="65.9929" ry="18"/>
<text text-anchor="middle" x="110.6579" y="-65.1648" font-family="Times,serif" font-size="14.00" fill="#000000">ApplyBorders</text>
</g>
<!-- EnlargeNamedRange&#45;&gt;ApplyBorders -->
<g id="edge70" class="edge">
<title>EnlargeNamedRange-&gt;ApplyBorders</title>
<path fill="none" stroke="#000000" d="M422.3369,-261.0307C360.8631,-223.2276 214.4951,-133.2191 146.5061,-91.4096"/>
<polygon fill="#000000" stroke="#000000" points="148.1889,-88.3356 137.8372,-86.0787 144.5221,-94.2984 148.1889,-88.3356"/>
</g>
<!-- VerifyFirstLastZoneInsertion&#45;&gt;VerifyFirstLastZoneInsertion -->
<g id="edge71" class="edge">
<title>VerifyFirstLastZoneInsertion-&gt;VerifyFirstLastZoneInsertion</title>
<path fill="none" stroke="#000000" d="M803.9276,-286.3434C814.9585,-286.0949 821.8714,-285.7011 821.8714,-285.1621 821.8714,-284.8167 819.0344,-284.531 814.0951,-284.305"/>
<polygon fill="#000000" stroke="#000000" points="814.0341,-280.8013 803.9276,-283.9808 813.811,-287.7978 814.0341,-280.8013"/>
</g>
<!-- VerifyFirstLastZoneInsertion&#45;&gt;VerifyFirstLastZoneInsertion -->
<g id="edge72" class="edge">
<title>VerifyFirstLastZoneInsertion-&gt;VerifyFirstLastZoneInsertion</title>
<path fill="none" stroke="#000000" d="M785.4224,-294.6622C858.3108,-297.4889 929.8714,-294.3222 929.8714,-285.1621 929.8714,-276.4313 864.8623,-273.1453 795.6563,-275.304"/>
<polygon fill="#000000" stroke="#000000" points="795.2939,-271.8144 785.4224,-275.662 795.5386,-278.8101 795.2939,-271.8144"/>
</g>
<!-- VerifyFirstLastZoneInsertion&#45;&gt;VerifyFirstLastZoneInsertion -->
<g id="edge73" class="edge">
<title>VerifyFirstLastZoneInsertion-&gt;VerifyFirstLastZoneInsertion</title>
<path fill="none" stroke="#000000" d="M789.28,-293.6677C852.769,-295.4035 911.8714,-292.5683 911.8714,-285.1621 911.8714,-278.1464 858.8381,-275.2324 799.2795,-276.42"/>
<polygon fill="#000000" stroke="#000000" points="799.1944,-272.9209 789.28,-276.6565 799.36,-279.919 799.1944,-272.9209"/>
</g>
<!-- VerifyFirstLastZoneInsertion&#45;&gt;VerifyFirstLastZoneInsertion -->
<g id="edge74" class="edge">
<title>VerifyFirstLastZoneInsertion-&gt;VerifyFirstLastZoneInsertion</title>
<path fill="none" stroke="#000000" d="M793.1944,-292.5011C846.8291,-293.3409 893.8714,-290.8945 893.8714,-285.1621 893.8714,-279.7991 852.6977,-277.3123 803.4722,-277.7016"/>
<polygon fill="#000000" stroke="#000000" points="803.1523,-274.205 793.1944,-277.823 803.2351,-281.2045 803.1523,-274.205"/>
</g>
<!-- VerifyFirstLastZoneInsertion&#45;&gt;VerifyFirstLastZoneInsertion -->
<g id="edge75" class="edge">
<title>VerifyFirstLastZoneInsertion-&gt;VerifyFirstLastZoneInsertion</title>
<path fill="none" stroke="#000000" d="M796.7687,-291.151C840.2038,-291.3303 875.8714,-289.334 875.8714,-285.1621 875.8714,-281.3161 845.5592,-279.3191 806.7933,-279.171"/>
<polygon fill="#000000" stroke="#000000" points="806.7679,-275.6709 796.7687,-279.1732 806.7695,-282.6709 806.7679,-275.6709"/>
</g>
<!-- VerifyFirstLastZoneInsertion&#45;&gt;VerifyFirstLastZoneInsertion -->
<g id="edge76" class="edge">
<title>VerifyFirstLastZoneInsertion-&gt;VerifyFirstLastZoneInsertion</title>
<path fill="none" stroke="#000000" d="M800.2665,-289.6288C832.9822,-289.3932 857.8714,-287.9043 857.8714,-285.1621 857.8714,-282.7091 837.9554,-281.259 810.3367,-280.8117"/>
<polygon fill="#000000" stroke="#000000" points="810.3063,-277.3112 800.2665,-280.6953 810.2253,-284.3107 810.3063,-277.3112"/>
</g>
<!-- VerifyFirstLastZoneInsertion&#45;&gt;VerifyFirstLastZoneInsertion -->
<g id="edge77" class="edge">
<title>VerifyFirstLastZoneInsertion-&gt;VerifyFirstLastZoneInsertion</title>
<path fill="none" stroke="#000000" d="M802.4618,-287.9861C824.4869,-287.619 839.8714,-286.6777 839.8714,-285.1621 839.8714,-283.8951 829.1208,-283.0294 812.7274,-282.5651"/>
<polygon fill="#000000" stroke="#000000" points="812.5368,-279.0601 802.4618,-282.338 812.3819,-286.0584 812.5368,-279.0601"/>
</g>
<!-- ResetRangeColors&#45;&gt;ResetRangeColors -->
<g id="edge78" class="edge">
<title>ResetRangeColors-&gt;ResetRangeColors</title>
<path fill="none" stroke="#000000" d="M461.1756,-469.1775C474.775,-468.3338 484.2354,-466.2244 484.2354,-462.8494 484.2354,-460.3972 479.2413,-458.6132 471.2942,-457.4973"/>
<polygon fill="#000000" stroke="#000000" points="471.4655,-453.9977 461.1756,-456.5213 470.7933,-460.9653 471.4655,-453.9977"/>
</g>
<!-- AssignRowColor&#45;&gt;AssignRowColor -->
<g id="edge79" class="edge">
<title>AssignRowColor-&gt;AssignRowColor</title>
<path fill="none" stroke="#000000" d="M183.5454,-406.3076C196.9309,-405.5001 206.3191,-403.3737 206.3191,-399.9284 206.3191,-397.4252 201.3631,-395.6182 193.5188,-394.5074"/>
<polygon fill="#000000" stroke="#000000" points="193.8343,-391.0217 183.5454,-393.5492 193.1647,-397.9896 193.8343,-391.0217"/>
</g>
<!-- AssignColumnColor&#45;&gt;AssignColumnColor -->
<g id="edge80" class="edge">
<title>AssignColumnColor-&gt;AssignColumnColor</title>
<path fill="none" stroke="#000000" d="M176.4902,-703.11C190.4415,-702.2159 200.0295,-700.1342 200.0295,-696.8646 200.0295,-694.4636 194.8586,-692.7031 186.5861,-691.5832"/>
<polygon fill="#000000" stroke="#000000" points="186.7776,-688.0856 176.4902,-690.6193 186.1123,-695.0539 186.7776,-688.0856"/>
</g>
<!-- ApplyColorsToNewColumns&#45;&gt;AssignColumnColor -->
<g id="edge82" class="edge">
<title>ApplyColorsToNewColumns-&gt;AssignColumnColor</title>
<path fill="none" stroke="#000000" d="M178.0126,-969.4951C162.2973,-920.2255 118.8293,-783.9476 99.9724,-724.8288"/>
<polygon fill="#000000" stroke="#000000" points="103.2267,-723.5135 96.8533,-715.05 96.5577,-725.6407 103.2267,-723.5135"/>
</g>
<!-- ApplyColorsToNewColumns&#45;&gt;ApplyColorsToNewColumns -->
<g id="edge81" class="edge">
<title>ApplyColorsToNewColumns-&gt;ApplyColorsToNewColumns</title>
<path fill="none" stroke="#000000" d="M301.7027,-993.5845C316.6934,-992.5535 326.5778,-990.5878 326.5778,-987.6874 326.5778,-985.5121 321.0178,-983.8626 311.9136,-982.7388"/>
<polygon fill="#000000" stroke="#000000" points="311.9836,-979.2303 301.7027,-981.7903 311.336,-986.2003 311.9836,-979.2303"/>
</g>
<!-- ApplyBorders&#45;&gt;ApplyBorders -->
<g id="edge83" class="edge">
<title>ApplyBorders-&gt;ApplyBorders</title>
<path fill="none" stroke="#000000" d="M172.0054,-75.8969C185.0116,-75.2336 194.4039,-73.0562 194.4039,-69.3648 194.4039,-66.7116 189.5518,-64.8406 181.9932,-63.7517"/>
<polygon fill="#000000" stroke="#000000" points="182.2841,-60.2638 172.0054,-62.8328 181.6427,-67.2343 182.2841,-60.2638"/>
</g>
<!-- CreateExcelValidateDropDownList&#45;&gt;CreateExcelValidateDropDownList -->
<g id="edge86" class="edge">
<title>CreateExcelValidateDropDownList-&gt;CreateExcelValidateDropDownList</title>
<path fill="none" stroke="#000000" d="M1127.9059,-757.535C1143.3699,-756.4529 1153.3353,-754.5672 1153.3353,-751.8777 1153.3353,-749.8396 1147.6124,-748.2631 1138.1104,-747.148"/>
<polygon fill="#000000" stroke="#000000" points="1138.1817,-743.6402 1127.9059,-746.2204 1137.5479,-750.6114 1138.1817,-743.6402"/>
</g>
<!-- getPossiblesValues -->
<g id="node23" class="node">
<title>getPossiblesValues</title>
<ellipse fill="none" stroke="#000000" cx="962.8258" cy="-1007.9724" rx="85.6879" ry="18"/>
<text text-anchor="middle" x="962.8258" y="-1003.7724" font-family="Times,serif" font-size="14.00" fill="#000000">getPossiblesValues</text>
</g>
<!-- CreateExcelValidateDropDownList&#45;&gt;getPossiblesValues -->
<g id="edge87" class="edge">
<title>CreateExcelValidateDropDownList-&gt;getPossiblesValues</title>
<path fill="none" stroke="#000000" d="M984.3137,-769.8858C980.353,-813.7698 970.1776,-926.5138 965.3893,-979.568"/>
<polygon fill="#000000" stroke="#000000" points="961.8933,-979.3672 964.4802,-989.6414 968.865,-979.9965 961.8933,-979.3672"/>
</g>
<!-- CreateDropDownList -->
<g id="node24" class="node">
<title>CreateDropDownList</title>
<ellipse fill="none" stroke="#000000" cx="1142.6659" cy="-630.803" rx="94.9013" ry="18"/>
<text text-anchor="middle" x="1142.6659" y="-626.603" font-family="Times,serif" font-size="14.00" fill="#000000">CreateDropDownList</text>
</g>
<!-- CreateExcelValidateDropDownList&#45;&gt;CreateDropDownList -->
<g id="edge88" class="edge">
<title>CreateExcelValidateDropDownList-&gt;CreateDropDownList</title>
<path fill="none" stroke="#000000" d="M1009.0646,-734.0127C1036.3055,-712.9685 1081.6661,-677.9265 1111.8665,-654.5961"/>
<polygon fill="#000000" stroke="#000000" points="1114.181,-657.2309 1119.9549,-648.3477 1109.9016,-651.6914 1114.181,-657.2309"/>
</g>
<!-- TextToUniqueValues -->
<g id="node27" class="node">
<title>TextToUniqueValues</title>
<ellipse fill="none" stroke="#000000" cx="1350.7295" cy="-933.2997" rx="94.9051" ry="18"/>
<text text-anchor="middle" x="1350.7295" y="-929.0997" font-family="Times,serif" font-size="14.00" fill="#000000">TextToUniqueValues</text>
</g>
<!-- CreateExcelValidateDropDownList&#45;&gt;TextToUniqueValues -->
<g id="edge84" class="edge">
<title>CreateExcelValidateDropDownList-&gt;TextToUniqueValues</title>
<path fill="none" stroke="#000000" d="M1021.2481,-769.4381C1088.4136,-802.8417 1234.3721,-875.4315 1307.3562,-911.7288"/>
<polygon fill="#000000" stroke="#000000" points="1306.2193,-915.0723 1316.7317,-916.3916 1309.3365,-908.8046 1306.2193,-915.0723"/>
</g>
<!-- CreateExcelValidateDropDownList&#45;&gt;TextToUniqueValues -->
<g id="edge85" class="edge">
<title>CreateExcelValidateDropDownList-&gt;TextToUniqueValues</title>
<path fill="none" stroke="#000000" d="M1021.2481,-769.4381C1088.4136,-802.8417 1234.3721,-875.4315 1307.3562,-911.7288"/>
<polygon fill="#000000" stroke="#000000" points="1306.2193,-915.0723 1316.7317,-916.3916 1309.3365,-908.8046 1306.2193,-915.0723"/>
</g>
<!-- getPossiblesValues&#45;&gt;getPossiblesValues -->
<g id="edge89" class="edge">
<title>getPossiblesValues-&gt;getPossiblesValues</title>
<path fill="none" stroke="#000000" d="M1043.1818,-1014.2737C1056.909,-1013.4126 1066.4197,-1011.3122 1066.4197,-1007.9724 1066.4197,-1005.5457 1061.3991,-1003.7734 1053.3884,-1002.6553"/>
<polygon fill="#000000" stroke="#000000" points="1053.4716,-999.1472 1043.1818,-1001.671 1052.7996,-1006.1149 1053.4716,-999.1472"/>
</g>
<!-- CreateDropDownList&#45;&gt;EditMode -->
<g id="edge91" class="edge">
<title>CreateDropDownList-&gt;EditMode</title>
<path fill="none" stroke="#000000" d="M1106.8886,-614.1002C1068.055,-595.9704 1006.2007,-567.0933 965.8447,-548.2528"/>
<polygon fill="#000000" stroke="#000000" points="967.118,-544.9847 956.5762,-543.9258 964.1568,-551.3275 967.118,-544.9847"/>
</g>
<!-- CreateDropDownList&#45;&gt;CreateDropDownList -->
<g id="edge90" class="edge">
<title>CreateDropDownList-&gt;CreateDropDownList</title>
<path fill="none" stroke="#000000" d="M1231.9472,-636.989C1245.8725,-636.0642 1255.3663,-634.0022 1255.3663,-630.803 1255.3663,-628.4536 1250.2462,-626.7175 1242.011,-625.5947"/>
<polygon fill="#000000" stroke="#000000" points="1242.2387,-622.1004 1231.9472,-624.617 1241.5619,-629.0676 1242.2387,-622.1004"/>
</g>
<!-- ApplyRangeFormula&#45;&gt;ApplyRangeFormula -->
<g id="edge92" class="edge">
<title>ApplyRangeFormula-&gt;ApplyRangeFormula</title>
<path fill="none" stroke="#000000" d="M819.5262,-625.0886C833.4344,-624.179 842.9546,-622.1069 842.9546,-618.8726 842.9546,-616.4973 837.8203,-614.7489 829.5843,-613.6274"/>
<polygon fill="#000000" stroke="#000000" points="829.8162,-610.1336 819.5262,-612.6565 829.1436,-617.1012 829.8162,-610.1336"/>
</g>
<!-- test -->
<g id="node26" class="node">
<title>test</title>
<ellipse fill="none" stroke="#000000" cx="1118.6914" cy="-353.6064" rx="27" ry="18"/>
<text text-anchor="middle" x="1118.6914" y="-349.4064" font-family="Times,serif" font-size="14.00" fill="#000000">test</text>
</g>
<!-- test&#45;&gt;EditMode -->
<g id="edge93" class="edge">
<title>test-&gt;EditMode</title>
<path fill="none" stroke="#000000" d="M1102.5944,-368.3132C1069.2692,-398.7604 992.4621,-468.9344 952.0094,-505.8936"/>
<polygon fill="#000000" stroke="#000000" points="949.4492,-503.4918 944.4273,-512.8209 954.1708,-508.6597 949.4492,-503.4918"/>
</g>
</g>
</svg>